<svg xmlns="http://www.w3.org/2000/svg" xmlns:xlink="http://www.w3.org/1999/xlink" width="260" zoomAndPan="magnify" viewBox="0 0 194.87999 144.749998" height="193" preserveAspectRatio="xMidYMid meet" version="1.0"><defs><filter x="0%" y="0%" width="100%" height="100%" id="29ba41cc51"><feColorMatrix values="0 0 0 0 1 0 0 0 0 1 0 0 0 0 1 0 0 0 1 0" color-interpolation-filters="sRGB"/></filter><g/><clipPath id="a035beaacf"><path d="M 0.109375 0 L 194.652344 0 L 194.652344 144.5 L 0.109375 144.5 Z M 0.109375 0 " clip-rule="nonzero"/></clipPath><clipPath id="819ac0a6d6"><path d="M 65.03125 4.949219 C 74.980469 1.960938 86.355469 0 97.492188 0 C 108.628906 0 119.34375 1.679688 129.21875 4.671875 C 129.429688 4.765625 129.640625 4.765625 129.847656 4.859375 C 166.933594 16.816406 194.246094 48.390625 194.773438 85.289062 L 194.773438 211.027344 L 0.109375 211.027344 L 0.109375 85.382812 C 0.632812 48.203125 27.527344 16.628906 65.03125 4.949219 Z M 65.03125 4.949219 " clip-rule="nonzero"/></clipPath><clipPath id="8380b7064e"><path d="M 48.449219 97 L 139 97 L 139 119.519531 L 48.449219 119.519531 Z M 48.449219 97 " clip-rule="nonzero"/></clipPath><mask id="b8abdc68db"><g filter="url(#29ba41cc51)"><rect x="-19.487999" width="233.855988" fill="#000000" y="-14.475" height="173.699997" fill-opacity="0.2"/></g></mask><clipPath id="e43bdbf821"><path d="M 0.742188 0.511719 L 58 0.511719 L 58 22.519531 L 0.742188 22.519531 Z M 0.742188 0.511719 " clip-rule="nonzero"/></clipPath><clipPath id="bb935756c4"><path d="M 60 0.511719 L 90.347656 0.511719 L 90.347656 22.519531 L 60 22.519531 Z M 60 0.511719 " clip-rule="nonzero"/></clipPath><clipPath id="ebc99a8981"><rect x="0" width="91" y="0" height="23"/></clipPath><clipPath id="5ef44ab908"><path d="M 109 96.308594 L 142 96.308594 L 142 117 L 109 117 Z M 109 96.308594 " clip-rule="nonzero"/></clipPath><clipPath id="e6ec5c8b4e"><path d="M 48.449219 96.308594 L 106 96.308594 L 106 117 L 48.449219 117 Z M 48.449219 96.308594 " clip-rule="nonzero"/></clipPath><clipPath id="7f2c852b29"><path d="M 48.449219 96.308594 L 66 96.308594 L 66 115 L 48.449219 115 Z M 48.449219 96.308594 " clip-rule="nonzero"/></clipPath><clipPath id="e81416c368"><path d="M 63 96.308594 L 76 96.308594 L 76 115 L 63 115 Z M 63 96.308594 " clip-rule="nonzero"/></clipPath><clipPath id="2e2573675f"><path d="M 73 96.308594 L 92 96.308594 L 92 115 L 73 115 Z M 73 96.308594 " clip-rule="nonzero"/></clipPath><clipPath id="217338bde7"><path d="M 90 96.308594 L 106 96.308594 L 106 115 L 90 115 Z M 90 96.308594 " clip-rule="nonzero"/></clipPath><clipPath id="27f3f9d38b"><path d="M 112 96.308594 L 128 96.308594 L 128 115 L 112 115 Z M 112 96.308594 " clip-rule="nonzero"/></clipPath><clipPath id="a53938b0cb"><path d="M 126 96.308594 L 142 96.308594 L 142 115 L 126 115 Z M 126 96.308594 " clip-rule="nonzero"/></clipPath><clipPath id="bb51919b1d"><path d="M 50 98 L 64 98 L 64 113 L 50 113 Z M 50 98 " clip-rule="nonzero"/></clipPath><clipPath id="f4c255f5de"><path d="M 56.75 112.574219 C 54.386719 112.574219 52.152344 111.84375 50.871094 110.679688 L 52.273438 108.789062 C 53.570312 109.5625 54.984375 109.984375 56.308594 109.984375 C 58.300781 109.984375 59.640625 109 59.640625 107.523438 C 59.640625 105.886719 57.761719 105.53125 55.941406 105.1875 C 53.285156 104.6875 51.410156 104.179688 51.410156 102.109375 C 51.410156 100.679688 52.015625 99.660156 53.253906 98.996094 C 54.3125 98.4375 55.84375 98.136719 57.6875 98.136719 C 58.671875 98.140625 59.65625 98.21875 60.632812 98.367188 L 60.5625 100.464844 C 59.621094 100.214844 58.660156 100.082031 57.6875 100.066406 C 55.054688 100.066406 54.769531 101.382812 54.769531 101.949219 C 54.769531 103.3125 56.347656 103.460938 57.871094 103.605469 C 60.949219 103.894531 63.304688 104.386719 63.304688 107.804688 C 63.304688 111.324219 59.773438 112.574219 56.75 112.574219 Z M 56.75 112.574219 " clip-rule="nonzero"/></clipPath><linearGradient x1="61.110001" gradientTransform="matrix(0.140264, 0, 0, 0.140581, 48.515705, 96.308662)" y1="12.999973" x2="61.110001" gradientUnits="userSpaceOnUse" y2="115.709972" id="b9822b0351"><stop stop-opacity="1" stop-color="rgb(99.913025%, 96.71936%, 1.13678%)" offset="0"/><stop stop-opacity="1" stop-color="rgb(99.899292%, 96.626282%, 1.319885%)" offset="0.015625"/><stop stop-opacity="1" stop-color="rgb(99.8703%, 96.440125%, 1.68457%)" offset="0.03125"/><stop stop-opacity="1" stop-color="rgb(99.842834%, 96.253967%, 2.049255%)" offset="0.046875"/><stop stop-opacity="1" stop-color="rgb(99.815369%, 96.06781%, 2.415466%)" offset="0.0625"/><stop stop-opacity="1" stop-color="rgb(99.787903%, 95.881653%, 2.780151%)" offset="0.078125"/><stop stop-opacity="1" stop-color="rgb(99.760437%, 95.695496%, 3.144836%)" offset="0.09375"/><stop stop-opacity="1" stop-color="rgb(99.731445%, 95.509338%, 3.511047%)" offset="0.109375"/><stop stop-opacity="1" stop-color="rgb(99.703979%, 95.323181%, 3.875732%)" offset="0.125"/><stop stop-opacity="1" stop-color="rgb(99.676514%, 95.137024%, 4.241943%)" offset="0.140625"/><stop stop-opacity="1" stop-color="rgb(99.649048%, 94.950867%, 4.606628%)" offset="0.15625"/><stop stop-opacity="1" stop-color="rgb(99.621582%, 94.764709%, 4.971313%)" offset="0.171875"/><stop stop-opacity="1" stop-color="rgb(99.59259%, 94.580078%, 5.337524%)" offset="0.1875"/><stop stop-opacity="1" stop-color="rgb(99.565125%, 94.393921%, 5.702209%)" offset="0.203125"/><stop stop-opacity="1" stop-color="rgb(99.537659%, 94.207764%, 6.066895%)" offset="0.21875"/><stop stop-opacity="1" stop-color="rgb(99.510193%, 94.021606%, 6.433105%)" offset="0.234375"/><stop stop-opacity="1" stop-color="rgb(99.482727%, 93.835449%, 6.797791%)" offset="0.25"/><stop stop-opacity="1" stop-color="rgb(99.453735%, 93.649292%, 7.162476%)" offset="0.265625"/><stop stop-opacity="1" stop-color="rgb(99.42627%, 93.463135%, 7.528687%)" offset="0.28125"/><stop stop-opacity="1" stop-color="rgb(99.398804%, 93.276978%, 7.893372%)" offset="0.296875"/><stop stop-opacity="1" stop-color="rgb(99.371338%, 93.09082%, 8.259583%)" offset="0.3125"/><stop stop-opacity="1" stop-color="rgb(99.343872%, 92.904663%, 8.624268%)" offset="0.328125"/><stop stop-opacity="1" stop-color="rgb(99.31488%, 92.718506%, 8.988953%)" offset="0.34375"/><stop stop-opacity="1" stop-color="rgb(99.287415%, 92.532349%, 9.355164%)" offset="0.359375"/><stop stop-opacity="1" stop-color="rgb(99.259949%, 92.346191%, 9.719849%)" offset="0.375"/><stop stop-opacity="1" stop-color="rgb(99.232483%, 92.160034%, 10.084534%)" offset="0.390625"/><stop stop-opacity="1" stop-color="rgb(99.205017%, 91.973877%, 10.450745%)" offset="0.40625"/><stop stop-opacity="1" stop-color="rgb(99.176025%, 91.78772%, 10.81543%)" offset="0.421875"/><stop stop-opacity="1" stop-color="rgb(99.14856%, 91.601562%, 11.180115%)" offset="0.4375"/><stop stop-opacity="1" stop-color="rgb(99.121094%, 91.415405%, 11.546326%)" offset="0.453125"/><stop stop-opacity="1" stop-color="rgb(99.093628%, 91.229248%, 11.911011%)" offset="0.46875"/><stop stop-opacity="1" stop-color="rgb(99.066162%, 91.043091%, 12.277222%)" offset="0.484375"/><stop stop-opacity="1" stop-color="rgb(99.03717%, 90.856934%, 12.641907%)" offset="0.5"/><stop stop-opacity="1" stop-color="rgb(99.009705%, 90.670776%, 13.006592%)" offset="0.515625"/><stop stop-opacity="1" stop-color="rgb(98.982239%, 90.484619%, 13.372803%)" offset="0.53125"/><stop stop-opacity="1" stop-color="rgb(98.954773%, 90.298462%, 13.737488%)" offset="0.546875"/><stop stop-opacity="1" stop-color="rgb(98.925781%, 90.113831%, 14.102173%)" offset="0.5625"/><stop stop-opacity="1" stop-color="rgb(98.898315%, 89.927673%, 14.468384%)" offset="0.578125"/><stop stop-opacity="1" stop-color="rgb(98.87085%, 89.741516%, 14.833069%)" offset="0.59375"/><stop stop-opacity="1" stop-color="rgb(98.843384%, 89.555359%, 15.197754%)" offset="0.609375"/><stop stop-opacity="1" stop-color="rgb(98.815918%, 89.369202%, 15.563965%)" offset="0.625"/><stop stop-opacity="1" stop-color="rgb(98.786926%, 89.183044%, 15.92865%)" offset="0.640625"/><stop stop-opacity="1" stop-color="rgb(98.75946%, 88.996887%, 16.294861%)" offset="0.65625"/><stop stop-opacity="1" stop-color="rgb(98.731995%, 88.81073%, 16.659546%)" offset="0.671875"/><stop stop-opacity="1" stop-color="rgb(98.704529%, 88.624573%, 17.024231%)" offset="0.6875"/><stop stop-opacity="1" stop-color="rgb(98.677063%, 88.438416%, 17.390442%)" offset="0.703125"/><stop stop-opacity="1" stop-color="rgb(98.648071%, 88.252258%, 17.755127%)" offset="0.71875"/><stop stop-opacity="1" stop-color="rgb(98.620605%, 88.066101%, 18.119812%)" offset="0.734375"/><stop stop-opacity="1" stop-color="rgb(98.59314%, 87.879944%, 18.486023%)" offset="0.75"/><stop stop-opacity="1" stop-color="rgb(98.565674%, 87.693787%, 18.850708%)" offset="0.765625"/><stop stop-opacity="1" stop-color="rgb(98.538208%, 87.507629%, 19.216919%)" offset="0.78125"/><stop stop-opacity="1" stop-color="rgb(98.509216%, 87.321472%, 19.581604%)" offset="0.796875"/><stop stop-opacity="1" stop-color="rgb(98.48175%, 87.135315%, 19.946289%)" offset="0.8125"/><stop stop-opacity="1" stop-color="rgb(98.454285%, 86.949158%, 20.3125%)" offset="0.828125"/><stop stop-opacity="1" stop-color="rgb(98.426819%, 86.763%, 20.677185%)" offset="0.84375"/><stop stop-opacity="1" stop-color="rgb(98.399353%, 86.576843%, 21.04187%)" offset="0.859375"/><stop stop-opacity="1" stop-color="rgb(98.370361%, 86.390686%, 21.408081%)" offset="0.875"/><stop stop-opacity="1" stop-color="rgb(98.342896%, 86.204529%, 21.772766%)" offset="0.890625"/><stop stop-opacity="1" stop-color="rgb(98.31543%, 86.018372%, 22.137451%)" offset="0.90625"/><stop stop-opacity="1" stop-color="rgb(98.287964%, 85.83374%, 22.503662%)" offset="0.921875"/><stop stop-opacity="1" stop-color="rgb(98.260498%, 85.647583%, 22.868347%)" offset="0.9375"/><stop stop-opacity="1" stop-color="rgb(98.231506%, 85.461426%, 23.234558%)" offset="0.953125"/><stop stop-opacity="1" stop-color="rgb(98.204041%, 85.275269%, 23.599243%)" offset="0.96875"/><stop stop-opacity="1" stop-color="rgb(98.176575%, 85.089111%, 23.963928%)" offset="0.984375"/><stop stop-opacity="1" stop-color="rgb(98.149109%, 84.902954%, 24.330139%)" offset="1"/></linearGradient><clipPath id="e78f029ce0"><path d="M 65 98 L 74 98 L 74 113 L 65 113 Z M 65 98 " clip-rule="nonzero"/></clipPath><clipPath id="3d3f498048"><path d="M 65.753906 111.929688 L 65.929688 109.664062 L 67.625 109.765625 L 67.984375 100.90625 L 66.335938 100.90625 L 66.265625 98.785156 L 73.355469 98.484375 L 73.304688 100.90625 L 71.363281 100.90625 L 70.730469 110.023438 L 72.167969 110.105469 L 72.003906 112.566406 Z M 65.753906 111.929688 " clip-rule="nonzero"/></clipPath><linearGradient x1="150" gradientTransform="matrix(0.140264, 0, 0, 0.140581, 48.515705, 96.308662)" y1="15.489974" x2="150" gradientUnits="userSpaceOnUse" y2="115.639972" id="ac6cb5c0de"><stop stop-opacity="1" stop-color="rgb(99.8703%, 96.430969%, 1.704407%)" offset="0"/><stop stop-opacity="1" stop-color="rgb(99.856567%, 96.339417%, 1.881409%)" offset="0.015625"/><stop stop-opacity="1" stop-color="rgb(99.829102%, 96.157837%, 2.236938%)" offset="0.03125"/><stop stop-opacity="1" stop-color="rgb(99.801636%, 95.976257%, 2.593994%)" offset="0.046875"/><stop stop-opacity="1" stop-color="rgb(99.77417%, 95.794678%, 2.949524%)" offset="0.0625"/><stop stop-opacity="1" stop-color="rgb(99.74823%, 95.613098%, 3.30658%)" offset="0.078125"/><stop stop-opacity="1" stop-color="rgb(99.720764%, 95.431519%, 3.662109%)" offset="0.09375"/><stop stop-opacity="1" stop-color="rgb(99.693298%, 95.249939%, 4.017639%)" offset="0.109375"/><stop stop-opacity="1" stop-color="rgb(99.665833%, 95.068359%, 4.374695%)" offset="0.125"/><stop stop-opacity="1" stop-color="rgb(99.639893%, 94.888306%, 4.730225%)" offset="0.140625"/><stop stop-opacity="1" stop-color="rgb(99.612427%, 94.706726%, 5.08728%)" offset="0.15625"/><stop stop-opacity="1" stop-color="rgb(99.584961%, 94.525146%, 5.44281%)" offset="0.171875"/><stop stop-opacity="1" stop-color="rgb(99.557495%, 94.343567%, 5.79834%)" offset="0.1875"/><stop stop-opacity="1" stop-color="rgb(99.531555%, 94.161987%, 6.155396%)" offset="0.203125"/><stop stop-opacity="1" stop-color="rgb(99.504089%, 93.980408%, 6.510925%)" offset="0.21875"/><stop stop-opacity="1" stop-color="rgb(99.476624%, 93.798828%, 6.867981%)" offset="0.234375"/><stop stop-opacity="1" stop-color="rgb(99.449158%, 93.617249%, 7.223511%)" offset="0.25"/><stop stop-opacity="1" stop-color="rgb(99.423218%, 93.435669%, 7.579041%)" offset="0.265625"/><stop stop-opacity="1" stop-color="rgb(99.395752%, 93.254089%, 7.936096%)" offset="0.28125"/><stop stop-opacity="1" stop-color="rgb(99.368286%, 93.07251%, 8.291626%)" offset="0.296875"/><stop stop-opacity="1" stop-color="rgb(99.34082%, 92.89093%, 8.648682%)" offset="0.3125"/><stop stop-opacity="1" stop-color="rgb(99.31488%, 92.710876%, 9.004211%)" offset="0.328125"/><stop stop-opacity="1" stop-color="rgb(99.287415%, 92.529297%, 9.359741%)" offset="0.34375"/><stop stop-opacity="1" stop-color="rgb(99.259949%, 92.347717%, 9.716797%)" offset="0.359375"/><stop stop-opacity="1" stop-color="rgb(99.232483%, 92.166138%, 10.072327%)" offset="0.375"/><stop stop-opacity="1" stop-color="rgb(99.206543%, 91.984558%, 10.429382%)" offset="0.390625"/><stop stop-opacity="1" stop-color="rgb(99.179077%, 91.802979%, 10.784912%)" offset="0.40625"/><stop stop-opacity="1" stop-color="rgb(99.151611%, 91.621399%, 11.140442%)" offset="0.421875"/><stop stop-opacity="1" stop-color="rgb(99.124146%, 91.439819%, 11.497498%)" offset="0.4375"/><stop stop-opacity="1" stop-color="rgb(99.098206%, 91.25824%, 11.853027%)" offset="0.453125"/><stop stop-opacity="1" stop-color="rgb(99.07074%, 91.07666%, 12.210083%)" offset="0.46875"/><stop stop-opacity="1" stop-color="rgb(99.043274%, 90.895081%, 12.565613%)" offset="0.484375"/><stop stop-opacity="1" stop-color="rgb(99.015808%, 90.713501%, 12.921143%)" offset="0.5"/><stop stop-opacity="1" stop-color="rgb(98.989868%, 90.533447%, 13.278198%)" offset="0.515625"/><stop stop-opacity="1" stop-color="rgb(98.962402%, 90.351868%, 13.633728%)" offset="0.53125"/><stop stop-opacity="1" stop-color="rgb(98.934937%, 90.170288%, 13.990784%)" offset="0.546875"/><stop stop-opacity="1" stop-color="rgb(98.907471%, 89.988708%, 14.346313%)" offset="0.5625"/><stop stop-opacity="1" stop-color="rgb(98.881531%, 89.807129%, 14.701843%)" offset="0.578125"/><stop stop-opacity="1" stop-color="rgb(98.854065%, 89.625549%, 15.058899%)" offset="0.59375"/><stop stop-opacity="1" stop-color="rgb(98.826599%, 89.44397%, 15.414429%)" offset="0.609375"/><stop stop-opacity="1" stop-color="rgb(98.799133%, 89.26239%, 15.771484%)" offset="0.625"/><stop stop-opacity="1" stop-color="rgb(98.773193%, 89.080811%, 16.127014%)" offset="0.640625"/><stop stop-opacity="1" stop-color="rgb(98.745728%, 88.899231%, 16.482544%)" offset="0.65625"/><stop stop-opacity="1" stop-color="rgb(98.718262%, 88.717651%, 16.8396%)" offset="0.671875"/><stop stop-opacity="1" stop-color="rgb(98.690796%, 88.536072%, 17.195129%)" offset="0.6875"/><stop stop-opacity="1" stop-color="rgb(98.664856%, 88.356018%, 17.552185%)" offset="0.703125"/><stop stop-opacity="1" stop-color="rgb(98.63739%, 88.174438%, 17.907715%)" offset="0.71875"/><stop stop-opacity="1" stop-color="rgb(98.609924%, 87.992859%, 18.263245%)" offset="0.734375"/><stop stop-opacity="1" stop-color="rgb(98.582458%, 87.811279%, 18.6203%)" offset="0.75"/><stop stop-opacity="1" stop-color="rgb(98.556519%, 87.6297%, 18.97583%)" offset="0.765625"/><stop stop-opacity="1" stop-color="rgb(98.529053%, 87.44812%, 19.332886%)" offset="0.78125"/><stop stop-opacity="1" stop-color="rgb(98.501587%, 87.266541%, 19.688416%)" offset="0.796875"/><stop stop-opacity="1" stop-color="rgb(98.474121%, 87.084961%, 20.043945%)" offset="0.8125"/><stop stop-opacity="1" stop-color="rgb(98.448181%, 86.903381%, 20.401001%)" offset="0.828125"/><stop stop-opacity="1" stop-color="rgb(98.420715%, 86.721802%, 20.756531%)" offset="0.84375"/><stop stop-opacity="1" stop-color="rgb(98.39325%, 86.540222%, 21.113586%)" offset="0.859375"/><stop stop-opacity="1" stop-color="rgb(98.365784%, 86.358643%, 21.469116%)" offset="0.875"/><stop stop-opacity="1" stop-color="rgb(98.339844%, 86.178589%, 21.824646%)" offset="0.890625"/><stop stop-opacity="1" stop-color="rgb(98.312378%, 85.997009%, 22.181702%)" offset="0.90625"/><stop stop-opacity="1" stop-color="rgb(98.284912%, 85.81543%, 22.537231%)" offset="0.921875"/><stop stop-opacity="1" stop-color="rgb(98.257446%, 85.63385%, 22.894287%)" offset="0.9375"/><stop stop-opacity="1" stop-color="rgb(98.231506%, 85.452271%, 23.249817%)" offset="0.953125"/><stop stop-opacity="1" stop-color="rgb(98.204041%, 85.270691%, 23.605347%)" offset="0.96875"/><stop stop-opacity="1" stop-color="rgb(98.176575%, 85.089111%, 23.962402%)" offset="0.984375"/><stop stop-opacity="1" stop-color="rgb(98.149109%, 84.907532%, 24.317932%)" offset="1"/></linearGradient><clipPath id="91e4ac9db6"><path d="M 75 98 L 90 98 L 90 113 L 75 113 Z M 75 98 " clip-rule="nonzero"/></clipPath><clipPath id="7729e7ad10"><path d="M 82.703125 112.914062 C 79.148438 112.914062 75.472656 110.128906 75.472656 105.464844 C 75.472656 103.328125 76.253906 101.511719 77.730469 100.203125 C 79.125 98.972656 81.046875 98.296875 83.144531 98.296875 C 84.566406 98.296875 85.929688 98.578125 87.238281 99.136719 L 86.046875 101.558594 C 85.027344 101.105469 83.957031 100.867188 82.84375 100.839844 C 81.597656 100.839844 78.695312 101.289062 78.695312 105.460938 C 78.695312 108.429688 80.921875 110.496094 82.925781 110.496094 C 84.421875 110.496094 85.554688 109.539062 85.957031 107.925781 L 86.171875 107.066406 L 83.429688 107.023438 L 83.398438 105.46875 L 89.378906 105.1875 L 89.378906 105.3125 C 89.378906 110.570312 86.027344 112.914062 82.703125 112.914062 Z M 82.703125 112.914062 " clip-rule="nonzero"/></clipPath><linearGradient x1="241.75999" gradientTransform="matrix(0.140264, 0, 0, 0.140581, 48.515705, 96.308662)" y1="14.129973" x2="241.75999" gradientUnits="userSpaceOnUse" y2="118.12997" id="84fc0fad5f"><stop stop-opacity="1" stop-color="rgb(99.893188%, 96.588135%, 1.394653%)" offset="0"/><stop stop-opacity="1" stop-color="rgb(99.879456%, 96.49353%, 1.579285%)" offset="0.015625"/><stop stop-opacity="1" stop-color="rgb(99.850464%, 96.305847%, 1.948547%)" offset="0.03125"/><stop stop-opacity="1" stop-color="rgb(99.822998%, 96.116638%, 2.319336%)" offset="0.046875"/><stop stop-opacity="1" stop-color="rgb(99.794006%, 95.928955%, 2.688599%)" offset="0.0625"/><stop stop-opacity="1" stop-color="rgb(99.766541%, 95.739746%, 3.057861%)" offset="0.078125"/><stop stop-opacity="1" stop-color="rgb(99.737549%, 95.552063%, 3.42865%)" offset="0.09375"/><stop stop-opacity="1" stop-color="rgb(99.710083%, 95.362854%, 3.797913%)" offset="0.109375"/><stop stop-opacity="1" stop-color="rgb(99.682617%, 95.175171%, 4.167175%)" offset="0.125"/><stop stop-opacity="1" stop-color="rgb(99.653625%, 94.985962%, 4.537964%)" offset="0.140625"/><stop stop-opacity="1" stop-color="rgb(99.62616%, 94.798279%, 4.907227%)" offset="0.15625"/><stop stop-opacity="1" stop-color="rgb(99.597168%, 94.60907%, 5.278015%)" offset="0.171875"/><stop stop-opacity="1" stop-color="rgb(99.569702%, 94.421387%, 5.647278%)" offset="0.1875"/><stop stop-opacity="1" stop-color="rgb(99.54071%, 94.232178%, 6.016541%)" offset="0.203125"/><stop stop-opacity="1" stop-color="rgb(99.513245%, 94.044495%, 6.387329%)" offset="0.21875"/><stop stop-opacity="1" stop-color="rgb(99.485779%, 93.855286%, 6.756592%)" offset="0.234375"/><stop stop-opacity="1" stop-color="rgb(99.456787%, 93.667603%, 7.125854%)" offset="0.25"/><stop stop-opacity="1" stop-color="rgb(99.429321%, 93.478394%, 7.496643%)" offset="0.265625"/><stop stop-opacity="1" stop-color="rgb(99.40033%, 93.29071%, 7.865906%)" offset="0.28125"/><stop stop-opacity="1" stop-color="rgb(99.372864%, 93.101501%, 8.235168%)" offset="0.296875"/><stop stop-opacity="1" stop-color="rgb(99.343872%, 92.913818%, 8.605957%)" offset="0.3125"/><stop stop-opacity="1" stop-color="rgb(99.316406%, 92.724609%, 8.97522%)" offset="0.328125"/><stop stop-opacity="1" stop-color="rgb(99.287415%, 92.536926%, 9.346008%)" offset="0.34375"/><stop stop-opacity="1" stop-color="rgb(99.259949%, 92.347717%, 9.715271%)" offset="0.359375"/><stop stop-opacity="1" stop-color="rgb(99.232483%, 92.160034%, 10.084534%)" offset="0.375"/><stop stop-opacity="1" stop-color="rgb(99.203491%, 91.970825%, 10.455322%)" offset="0.390625"/><stop stop-opacity="1" stop-color="rgb(99.176025%, 91.783142%, 10.824585%)" offset="0.40625"/><stop stop-opacity="1" stop-color="rgb(99.147034%, 91.593933%, 11.193848%)" offset="0.421875"/><stop stop-opacity="1" stop-color="rgb(99.119568%, 91.40625%, 11.564636%)" offset="0.4375"/><stop stop-opacity="1" stop-color="rgb(99.090576%, 91.217041%, 11.933899%)" offset="0.453125"/><stop stop-opacity="1" stop-color="rgb(99.06311%, 91.029358%, 12.304688%)" offset="0.46875"/><stop stop-opacity="1" stop-color="rgb(99.035645%, 90.840149%, 12.67395%)" offset="0.484375"/><stop stop-opacity="1" stop-color="rgb(99.006653%, 90.652466%, 13.043213%)" offset="0.5"/><stop stop-opacity="1" stop-color="rgb(98.979187%, 90.464783%, 13.414001%)" offset="0.515625"/><stop stop-opacity="1" stop-color="rgb(98.950195%, 90.275574%, 13.783264%)" offset="0.53125"/><stop stop-opacity="1" stop-color="rgb(98.922729%, 90.087891%, 14.152527%)" offset="0.546875"/><stop stop-opacity="1" stop-color="rgb(98.893738%, 89.898682%, 14.523315%)" offset="0.5625"/><stop stop-opacity="1" stop-color="rgb(98.866272%, 89.710999%, 14.892578%)" offset="0.578125"/><stop stop-opacity="1" stop-color="rgb(98.838806%, 89.52179%, 15.263367%)" offset="0.59375"/><stop stop-opacity="1" stop-color="rgb(98.809814%, 89.334106%, 15.632629%)" offset="0.609375"/><stop stop-opacity="1" stop-color="rgb(98.782349%, 89.144897%, 16.001892%)" offset="0.625"/><stop stop-opacity="1" stop-color="rgb(98.753357%, 88.957214%, 16.372681%)" offset="0.640625"/><stop stop-opacity="1" stop-color="rgb(98.725891%, 88.768005%, 16.741943%)" offset="0.65625"/><stop stop-opacity="1" stop-color="rgb(98.696899%, 88.580322%, 17.111206%)" offset="0.671875"/><stop stop-opacity="1" stop-color="rgb(98.669434%, 88.391113%, 17.481995%)" offset="0.6875"/><stop stop-opacity="1" stop-color="rgb(98.641968%, 88.20343%, 17.851257%)" offset="0.703125"/><stop stop-opacity="1" stop-color="rgb(98.612976%, 88.014221%, 18.222046%)" offset="0.71875"/><stop stop-opacity="1" stop-color="rgb(98.58551%, 87.826538%, 18.591309%)" offset="0.734375"/><stop stop-opacity="1" stop-color="rgb(98.556519%, 87.637329%, 18.960571%)" offset="0.75"/><stop stop-opacity="1" stop-color="rgb(98.529053%, 87.449646%, 19.33136%)" offset="0.765625"/><stop stop-opacity="1" stop-color="rgb(98.500061%, 87.260437%, 19.700623%)" offset="0.78125"/><stop stop-opacity="1" stop-color="rgb(98.472595%, 87.072754%, 20.069885%)" offset="0.796875"/><stop stop-opacity="1" stop-color="rgb(98.445129%, 86.883545%, 20.440674%)" offset="0.8125"/><stop stop-opacity="1" stop-color="rgb(98.416138%, 86.695862%, 20.809937%)" offset="0.828125"/><stop stop-opacity="1" stop-color="rgb(98.388672%, 86.506653%, 21.179199%)" offset="0.84375"/><stop stop-opacity="1" stop-color="rgb(98.35968%, 86.31897%, 21.549988%)" offset="0.859375"/><stop stop-opacity="1" stop-color="rgb(98.332214%, 86.129761%, 21.91925%)" offset="0.875"/><stop stop-opacity="1" stop-color="rgb(98.303223%, 85.942078%, 22.290039%)" offset="0.890625"/><stop stop-opacity="1" stop-color="rgb(98.275757%, 85.752869%, 22.659302%)" offset="0.90625"/><stop stop-opacity="1" stop-color="rgb(98.248291%, 85.565186%, 23.028564%)" offset="0.921875"/><stop stop-opacity="1" stop-color="rgb(98.219299%, 85.375977%, 23.399353%)" offset="0.9375"/><stop stop-opacity="1" stop-color="rgb(98.191833%, 85.188293%, 23.768616%)" offset="0.953125"/><stop stop-opacity="1" stop-color="rgb(98.162842%, 84.999084%, 24.137878%)" offset="0.96875"/><stop stop-opacity="1" stop-color="rgb(98.135376%, 84.811401%, 24.508667%)" offset="0.984375"/><stop stop-opacity="1" stop-color="rgb(98.106384%, 84.622192%, 24.87793%)" offset="1"/></linearGradient><clipPath id="1095ffaccf"><path d="M 92 98 L 104 98 L 104 113 L 92 113 Z M 92 98 " clip-rule="nonzero"/></clipPath><clipPath id="7f8d31856c"><path d="M 94.828125 102.4375 L 95.265625 112.296875 L 92.417969 112.003906 L 92.09375 99.691406 L 95.640625 99.019531 L 99.347656 106.089844 L 100.671875 105.738281 L 100.398438 98.816406 L 103.902344 98.621094 L 102.6875 112.433594 L 101.414062 112.695312 Z M 94.828125 102.4375 " clip-rule="nonzero"/></clipPath><linearGradient x1="352.78" gradientTransform="matrix(0.140264, 0, 0, 0.140581, 48.515705, 96.308662)" y1="16.439975" x2="352.78" gradientUnits="userSpaceOnUse" y2="116.549976" id="6dbc6da619"><stop stop-opacity="1" stop-color="rgb(99.853516%, 96.321106%, 1.919556%)" offset="0"/><stop stop-opacity="1" stop-color="rgb(99.839783%, 96.229553%, 2.098083%)" offset="0.015625"/><stop stop-opacity="1" stop-color="rgb(99.812317%, 96.047974%, 2.453613%)" offset="0.03125"/><stop stop-opacity="1" stop-color="rgb(99.784851%, 95.866394%, 2.809143%)" offset="0.046875"/><stop stop-opacity="1" stop-color="rgb(99.758911%, 95.684814%, 3.166199%)" offset="0.0625"/><stop stop-opacity="1" stop-color="rgb(99.731445%, 95.503235%, 3.521729%)" offset="0.078125"/><stop stop-opacity="1" stop-color="rgb(99.703979%, 95.321655%, 3.877258%)" offset="0.09375"/><stop stop-opacity="1" stop-color="rgb(99.676514%, 95.141602%, 4.232788%)" offset="0.109375"/><stop stop-opacity="1" stop-color="rgb(99.650574%, 94.960022%, 4.589844%)" offset="0.125"/><stop stop-opacity="1" stop-color="rgb(99.623108%, 94.778442%, 4.945374%)" offset="0.140625"/><stop stop-opacity="1" stop-color="rgb(99.595642%, 94.596863%, 5.300903%)" offset="0.15625"/><stop stop-opacity="1" stop-color="rgb(99.568176%, 94.415283%, 5.657959%)" offset="0.171875"/><stop stop-opacity="1" stop-color="rgb(99.542236%, 94.233704%, 6.013489%)" offset="0.1875"/><stop stop-opacity="1" stop-color="rgb(99.514771%, 94.052124%, 6.369019%)" offset="0.203125"/><stop stop-opacity="1" stop-color="rgb(99.487305%, 93.870544%, 6.726074%)" offset="0.21875"/><stop stop-opacity="1" stop-color="rgb(99.459839%, 93.690491%, 7.081604%)" offset="0.234375"/><stop stop-opacity="1" stop-color="rgb(99.433899%, 93.508911%, 7.437134%)" offset="0.25"/><stop stop-opacity="1" stop-color="rgb(99.406433%, 93.327332%, 7.794189%)" offset="0.265625"/><stop stop-opacity="1" stop-color="rgb(99.378967%, 93.145752%, 8.149719%)" offset="0.28125"/><stop stop-opacity="1" stop-color="rgb(99.351501%, 92.964172%, 8.505249%)" offset="0.296875"/><stop stop-opacity="1" stop-color="rgb(99.325562%, 92.782593%, 8.860779%)" offset="0.3125"/><stop stop-opacity="1" stop-color="rgb(99.298096%, 92.601013%, 9.217834%)" offset="0.328125"/><stop stop-opacity="1" stop-color="rgb(99.27063%, 92.419434%, 9.573364%)" offset="0.34375"/><stop stop-opacity="1" stop-color="rgb(99.243164%, 92.23938%, 9.928894%)" offset="0.359375"/><stop stop-opacity="1" stop-color="rgb(99.217224%, 92.0578%, 10.28595%)" offset="0.375"/><stop stop-opacity="1" stop-color="rgb(99.189758%, 91.876221%, 10.641479%)" offset="0.390625"/><stop stop-opacity="1" stop-color="rgb(99.162292%, 91.694641%, 10.997009%)" offset="0.40625"/><stop stop-opacity="1" stop-color="rgb(99.134827%, 91.513062%, 11.354065%)" offset="0.421875"/><stop stop-opacity="1" stop-color="rgb(99.108887%, 91.331482%, 11.709595%)" offset="0.4375"/><stop stop-opacity="1" stop-color="rgb(99.081421%, 91.149902%, 12.065125%)" offset="0.453125"/><stop stop-opacity="1" stop-color="rgb(99.053955%, 90.969849%, 12.42218%)" offset="0.46875"/><stop stop-opacity="1" stop-color="rgb(99.028015%, 90.788269%, 12.77771%)" offset="0.484375"/><stop stop-opacity="1" stop-color="rgb(99.000549%, 90.606689%, 13.13324%)" offset="0.5"/><stop stop-opacity="1" stop-color="rgb(98.973083%, 90.42511%, 13.48877%)" offset="0.515625"/><stop stop-opacity="1" stop-color="rgb(98.945618%, 90.24353%, 13.845825%)" offset="0.53125"/><stop stop-opacity="1" stop-color="rgb(98.919678%, 90.061951%, 14.201355%)" offset="0.546875"/><stop stop-opacity="1" stop-color="rgb(98.892212%, 89.880371%, 14.556885%)" offset="0.5625"/><stop stop-opacity="1" stop-color="rgb(98.864746%, 89.698792%, 14.91394%)" offset="0.578125"/><stop stop-opacity="1" stop-color="rgb(98.83728%, 89.518738%, 15.26947%)" offset="0.59375"/><stop stop-opacity="1" stop-color="rgb(98.81134%, 89.337158%, 15.625%)" offset="0.609375"/><stop stop-opacity="1" stop-color="rgb(98.783875%, 89.155579%, 15.982056%)" offset="0.625"/><stop stop-opacity="1" stop-color="rgb(98.756409%, 88.973999%, 16.337585%)" offset="0.640625"/><stop stop-opacity="1" stop-color="rgb(98.728943%, 88.792419%, 16.693115%)" offset="0.65625"/><stop stop-opacity="1" stop-color="rgb(98.703003%, 88.61084%, 17.048645%)" offset="0.671875"/><stop stop-opacity="1" stop-color="rgb(98.675537%, 88.42926%, 17.405701%)" offset="0.6875"/><stop stop-opacity="1" stop-color="rgb(98.648071%, 88.247681%, 17.76123%)" offset="0.703125"/><stop stop-opacity="1" stop-color="rgb(98.620605%, 88.067627%, 18.11676%)" offset="0.71875"/><stop stop-opacity="1" stop-color="rgb(98.594666%, 87.886047%, 18.473816%)" offset="0.734375"/><stop stop-opacity="1" stop-color="rgb(98.5672%, 87.704468%, 18.829346%)" offset="0.75"/><stop stop-opacity="1" stop-color="rgb(98.539734%, 87.522888%, 19.184875%)" offset="0.765625"/><stop stop-opacity="1" stop-color="rgb(98.512268%, 87.341309%, 19.541931%)" offset="0.78125"/><stop stop-opacity="1" stop-color="rgb(98.486328%, 87.159729%, 19.897461%)" offset="0.796875"/><stop stop-opacity="1" stop-color="rgb(98.458862%, 86.978149%, 20.252991%)" offset="0.8125"/><stop stop-opacity="1" stop-color="rgb(98.431396%, 86.79657%, 20.610046%)" offset="0.828125"/><stop stop-opacity="1" stop-color="rgb(98.403931%, 86.616516%, 20.965576%)" offset="0.84375"/><stop stop-opacity="1" stop-color="rgb(98.377991%, 86.434937%, 21.321106%)" offset="0.859375"/><stop stop-opacity="1" stop-color="rgb(98.350525%, 86.253357%, 21.676636%)" offset="0.875"/><stop stop-opacity="1" stop-color="rgb(98.323059%, 86.071777%, 22.033691%)" offset="0.890625"/><stop stop-opacity="1" stop-color="rgb(98.295593%, 85.890198%, 22.389221%)" offset="0.90625"/><stop stop-opacity="1" stop-color="rgb(98.269653%, 85.708618%, 22.744751%)" offset="0.921875"/><stop stop-opacity="1" stop-color="rgb(98.242188%, 85.527039%, 23.101807%)" offset="0.9375"/><stop stop-opacity="1" stop-color="rgb(98.214722%, 85.346985%, 23.457336%)" offset="0.953125"/><stop stop-opacity="1" stop-color="rgb(98.188782%, 85.165405%, 23.812866%)" offset="0.96875"/><stop stop-opacity="1" stop-color="rgb(98.161316%, 84.983826%, 24.169922%)" offset="0.984375"/><stop stop-opacity="1" stop-color="rgb(98.13385%, 84.802246%, 24.525452%)" offset="1"/></linearGradient><clipPath id="a12e879a7c"><path d="M 114 98 L 126 98 L 126 113 L 114 113 Z M 114 98 " clip-rule="nonzero"/></clipPath><clipPath id="56881f72dc"><path d="M 120.304688 112.976562 C 116.082031 112.976562 114.578125 107.132812 114.578125 102.128906 C 114.597656 100.867188 114.691406 99.613281 114.859375 98.363281 L 118.019531 98.707031 C 117.824219 99.804688 117.730469 100.914062 117.730469 102.027344 C 117.730469 106.59375 118.710938 108.90625 120.664062 108.90625 C 123.675781 108.90625 123.675781 104.046875 123.675781 102.449219 C 123.675781 101.179688 123.585938 99.917969 123.40625 98.664062 L 125.546875 98.472656 C 125.707031 99.761719 125.785156 101.054688 125.78125 102.355469 C 125.78125 104.453125 125.5625 107.445312 124.519531 109.785156 C 123.582031 111.902344 122.160156 112.976562 120.304688 112.976562 Z M 120.304688 112.976562 " clip-rule="nonzero"/></clipPath><linearGradient x1="510.95001" gradientTransform="matrix(0.140264, 0, 0, 0.140581, 48.515705, 96.308662)" y1="14.619975" x2="510.95001" gradientUnits="userSpaceOnUse" y2="118.559971" id="a0d9250d31"><stop stop-opacity="1" stop-color="rgb(99.884033%, 96.531677%, 1.506042%)" offset="0"/><stop stop-opacity="1" stop-color="rgb(99.8703%, 96.437073%, 1.690674%)" offset="0.015625"/><stop stop-opacity="1" stop-color="rgb(99.842834%, 96.24939%, 2.059937%)" offset="0.03125"/><stop stop-opacity="1" stop-color="rgb(99.813843%, 96.060181%, 2.429199%)" offset="0.046875"/><stop stop-opacity="1" stop-color="rgb(99.786377%, 95.872498%, 2.799988%)" offset="0.0625"/><stop stop-opacity="1" stop-color="rgb(99.757385%, 95.683289%, 3.16925%)" offset="0.078125"/><stop stop-opacity="1" stop-color="rgb(99.729919%, 95.495605%, 3.538513%)" offset="0.09375"/><stop stop-opacity="1" stop-color="rgb(99.700928%, 95.306396%, 3.907776%)" offset="0.109375"/><stop stop-opacity="1" stop-color="rgb(99.673462%, 95.118713%, 4.278564%)" offset="0.125"/><stop stop-opacity="1" stop-color="rgb(99.645996%, 94.93103%, 4.647827%)" offset="0.140625"/><stop stop-opacity="1" stop-color="rgb(99.617004%, 94.741821%, 5.01709%)" offset="0.15625"/><stop stop-opacity="1" stop-color="rgb(99.589539%, 94.554138%, 5.386353%)" offset="0.171875"/><stop stop-opacity="1" stop-color="rgb(99.560547%, 94.364929%, 5.755615%)" offset="0.1875"/><stop stop-opacity="1" stop-color="rgb(99.533081%, 94.177246%, 6.126404%)" offset="0.203125"/><stop stop-opacity="1" stop-color="rgb(99.505615%, 93.989563%, 6.495667%)" offset="0.21875"/><stop stop-opacity="1" stop-color="rgb(99.476624%, 93.800354%, 6.864929%)" offset="0.234375"/><stop stop-opacity="1" stop-color="rgb(99.449158%, 93.612671%, 7.234192%)" offset="0.25"/><stop stop-opacity="1" stop-color="rgb(99.420166%, 93.423462%, 7.60498%)" offset="0.265625"/><stop stop-opacity="1" stop-color="rgb(99.3927%, 93.235779%, 7.974243%)" offset="0.28125"/><stop stop-opacity="1" stop-color="rgb(99.363708%, 93.04657%, 8.343506%)" offset="0.296875"/><stop stop-opacity="1" stop-color="rgb(99.336243%, 92.858887%, 8.712769%)" offset="0.3125"/><stop stop-opacity="1" stop-color="rgb(99.308777%, 92.671204%, 9.083557%)" offset="0.328125"/><stop stop-opacity="1" stop-color="rgb(99.279785%, 92.481995%, 9.45282%)" offset="0.34375"/><stop stop-opacity="1" stop-color="rgb(99.252319%, 92.294312%, 9.822083%)" offset="0.359375"/><stop stop-opacity="1" stop-color="rgb(99.223328%, 92.105103%, 10.191345%)" offset="0.375"/><stop stop-opacity="1" stop-color="rgb(99.195862%, 91.917419%, 10.560608%)" offset="0.390625"/><stop stop-opacity="1" stop-color="rgb(99.16687%, 91.72821%, 10.931396%)" offset="0.40625"/><stop stop-opacity="1" stop-color="rgb(99.139404%, 91.540527%, 11.300659%)" offset="0.421875"/><stop stop-opacity="1" stop-color="rgb(99.111938%, 91.352844%, 11.669922%)" offset="0.4375"/><stop stop-opacity="1" stop-color="rgb(99.082947%, 91.163635%, 12.039185%)" offset="0.453125"/><stop stop-opacity="1" stop-color="rgb(99.055481%, 90.975952%, 12.409973%)" offset="0.46875"/><stop stop-opacity="1" stop-color="rgb(99.026489%, 90.786743%, 12.779236%)" offset="0.484375"/><stop stop-opacity="1" stop-color="rgb(98.999023%, 90.59906%, 13.148499%)" offset="0.5"/><stop stop-opacity="1" stop-color="rgb(98.971558%, 90.411377%, 13.517761%)" offset="0.515625"/><stop stop-opacity="1" stop-color="rgb(98.942566%, 90.222168%, 13.88855%)" offset="0.53125"/><stop stop-opacity="1" stop-color="rgb(98.9151%, 90.034485%, 14.257812%)" offset="0.546875"/><stop stop-opacity="1" stop-color="rgb(98.886108%, 89.845276%, 14.627075%)" offset="0.5625"/><stop stop-opacity="1" stop-color="rgb(98.858643%, 89.657593%, 14.996338%)" offset="0.578125"/><stop stop-opacity="1" stop-color="rgb(98.829651%, 89.468384%, 15.365601%)" offset="0.59375"/><stop stop-opacity="1" stop-color="rgb(98.802185%, 89.280701%, 15.736389%)" offset="0.609375"/><stop stop-opacity="1" stop-color="rgb(98.774719%, 89.093018%, 16.105652%)" offset="0.625"/><stop stop-opacity="1" stop-color="rgb(98.745728%, 88.903809%, 16.474915%)" offset="0.640625"/><stop stop-opacity="1" stop-color="rgb(98.718262%, 88.716125%, 16.844177%)" offset="0.65625"/><stop stop-opacity="1" stop-color="rgb(98.68927%, 88.526917%, 17.214966%)" offset="0.671875"/><stop stop-opacity="1" stop-color="rgb(98.661804%, 88.339233%, 17.584229%)" offset="0.6875"/><stop stop-opacity="1" stop-color="rgb(98.632812%, 88.15155%, 17.953491%)" offset="0.703125"/><stop stop-opacity="1" stop-color="rgb(98.605347%, 87.962341%, 18.322754%)" offset="0.71875"/><stop stop-opacity="1" stop-color="rgb(98.577881%, 87.774658%, 18.693542%)" offset="0.734375"/><stop stop-opacity="1" stop-color="rgb(98.548889%, 87.585449%, 19.062805%)" offset="0.75"/><stop stop-opacity="1" stop-color="rgb(98.521423%, 87.397766%, 19.432068%)" offset="0.765625"/><stop stop-opacity="1" stop-color="rgb(98.492432%, 87.208557%, 19.801331%)" offset="0.78125"/><stop stop-opacity="1" stop-color="rgb(98.464966%, 87.020874%, 20.170593%)" offset="0.796875"/><stop stop-opacity="1" stop-color="rgb(98.4375%, 86.833191%, 20.541382%)" offset="0.8125"/><stop stop-opacity="1" stop-color="rgb(98.408508%, 86.643982%, 20.910645%)" offset="0.828125"/><stop stop-opacity="1" stop-color="rgb(98.381042%, 86.456299%, 21.279907%)" offset="0.84375"/><stop stop-opacity="1" stop-color="rgb(98.352051%, 86.26709%, 21.64917%)" offset="0.859375"/><stop stop-opacity="1" stop-color="rgb(98.324585%, 86.079407%, 22.019958%)" offset="0.875"/><stop stop-opacity="1" stop-color="rgb(98.295593%, 85.891724%, 22.389221%)" offset="0.890625"/><stop stop-opacity="1" stop-color="rgb(98.268127%, 85.702515%, 22.758484%)" offset="0.90625"/><stop stop-opacity="1" stop-color="rgb(98.240662%, 85.514832%, 23.127747%)" offset="0.921875"/><stop stop-opacity="1" stop-color="rgb(98.21167%, 85.325623%, 23.498535%)" offset="0.9375"/><stop stop-opacity="1" stop-color="rgb(98.184204%, 85.137939%, 23.867798%)" offset="0.953125"/><stop stop-opacity="1" stop-color="rgb(98.155212%, 84.94873%, 24.237061%)" offset="0.96875"/><stop stop-opacity="1" stop-color="rgb(98.127747%, 84.761047%, 24.606323%)" offset="0.984375"/><stop stop-opacity="1" stop-color="rgb(98.098755%, 84.573364%, 24.975586%)" offset="1"/></linearGradient><clipPath id="045583a087"><path d="M 128 98 L 141 98 L 141 113 L 128 113 Z M 128 98 " clip-rule="nonzero"/></clipPath><clipPath id="b2bec93a38"><path d="M 128.597656 98.839844 C 129.933594 98.410156 131.300781 98.199219 132.703125 98.203125 C 135.167969 98.203125 137.070312 98.675781 138.347656 99.609375 C 139.546875 100.480469 140.15625 101.753906 140.15625 103.394531 C 140.15625 104.605469 139.558594 105.734375 138.472656 106.574219 C 137.171875 107.582031 135.273438 108.121094 132.980469 108.121094 L 132.171875 108.121094 L 132.8125 112.488281 L 129.640625 112.707031 Z M 133.757812 100.292969 C 133.023438 100.300781 132.316406 100.445312 131.636719 100.726562 L 131.132812 100.929688 L 131.871094 106.121094 L 132.597656 105.980469 C 135.160156 105.472656 136.632812 104.304688 136.632812 102.773438 C 136.632812 101.242188 135.53125 100.285156 133.757812 100.285156 Z M 133.757812 100.292969 " clip-rule="nonzero"/></clipPath><linearGradient x1="612.14001" gradientTransform="matrix(0.140264, 0, 0, 0.140581, 48.515705, 96.308662)" y1="13.441266" x2="612.14001" gradientUnits="userSpaceOnUse" y2="116.659969" id="2265f6962b"><stop stop-opacity="1" stop-color="rgb(99.905396%, 96.669006%, 1.237488%)" offset="0"/><stop stop-opacity="1" stop-color="rgb(99.890137%, 96.574402%, 1.420593%)" offset="0.015625"/><stop stop-opacity="1" stop-color="rgb(99.862671%, 96.386719%, 1.78833%)" offset="0.03125"/><stop stop-opacity="1" stop-color="rgb(99.835205%, 96.200562%, 2.154541%)" offset="0.046875"/><stop stop-opacity="1" stop-color="rgb(99.807739%, 96.012878%, 2.522278%)" offset="0.0625"/><stop stop-opacity="1" stop-color="rgb(99.778748%, 95.826721%, 2.888489%)" offset="0.078125"/><stop stop-opacity="1" stop-color="rgb(99.751282%, 95.639038%, 3.256226%)" offset="0.09375"/><stop stop-opacity="1" stop-color="rgb(99.723816%, 95.452881%, 3.622437%)" offset="0.109375"/><stop stop-opacity="1" stop-color="rgb(99.694824%, 95.265198%, 3.990173%)" offset="0.125"/><stop stop-opacity="1" stop-color="rgb(99.667358%, 95.077515%, 4.356384%)" offset="0.140625"/><stop stop-opacity="1" stop-color="rgb(99.639893%, 94.891357%, 4.724121%)" offset="0.15625"/><stop stop-opacity="1" stop-color="rgb(99.612427%, 94.703674%, 5.091858%)" offset="0.171875"/><stop stop-opacity="1" stop-color="rgb(99.583435%, 94.517517%, 5.458069%)" offset="0.1875"/><stop stop-opacity="1" stop-color="rgb(99.555969%, 94.329834%, 5.825806%)" offset="0.203125"/><stop stop-opacity="1" stop-color="rgb(99.528503%, 94.143677%, 6.192017%)" offset="0.21875"/><stop stop-opacity="1" stop-color="rgb(99.499512%, 93.955994%, 6.559753%)" offset="0.234375"/><stop stop-opacity="1" stop-color="rgb(99.472046%, 93.769836%, 6.925964%)" offset="0.25"/><stop stop-opacity="1" stop-color="rgb(99.44458%, 93.582153%, 7.293701%)" offset="0.265625"/><stop stop-opacity="1" stop-color="rgb(99.417114%, 93.39447%, 7.659912%)" offset="0.28125"/><stop stop-opacity="1" stop-color="rgb(99.388123%, 93.208313%, 8.027649%)" offset="0.296875"/><stop stop-opacity="1" stop-color="rgb(99.360657%, 93.02063%, 8.395386%)" offset="0.3125"/><stop stop-opacity="1" stop-color="rgb(99.333191%, 92.834473%, 8.761597%)" offset="0.328125"/><stop stop-opacity="1" stop-color="rgb(99.304199%, 92.64679%, 9.129333%)" offset="0.34375"/><stop stop-opacity="1" stop-color="rgb(99.276733%, 92.460632%, 9.495544%)" offset="0.359375"/><stop stop-opacity="1" stop-color="rgb(99.249268%, 92.272949%, 9.863281%)" offset="0.375"/><stop stop-opacity="1" stop-color="rgb(99.220276%, 92.085266%, 10.229492%)" offset="0.390625"/><stop stop-opacity="1" stop-color="rgb(99.19281%, 91.899109%, 10.597229%)" offset="0.40625"/><stop stop-opacity="1" stop-color="rgb(99.165344%, 91.711426%, 10.96344%)" offset="0.421875"/><stop stop-opacity="1" stop-color="rgb(99.137878%, 91.525269%, 11.331177%)" offset="0.4375"/><stop stop-opacity="1" stop-color="rgb(99.108887%, 91.337585%, 11.697388%)" offset="0.453125"/><stop stop-opacity="1" stop-color="rgb(99.081421%, 91.151428%, 12.065125%)" offset="0.46875"/><stop stop-opacity="1" stop-color="rgb(99.053955%, 90.963745%, 12.432861%)" offset="0.484375"/><stop stop-opacity="1" stop-color="rgb(99.024963%, 90.777588%, 12.799072%)" offset="0.5"/><stop stop-opacity="1" stop-color="rgb(98.997498%, 90.589905%, 13.166809%)" offset="0.515625"/><stop stop-opacity="1" stop-color="rgb(98.970032%, 90.402222%, 13.53302%)" offset="0.53125"/><stop stop-opacity="1" stop-color="rgb(98.942566%, 90.216064%, 13.900757%)" offset="0.546875"/><stop stop-opacity="1" stop-color="rgb(98.913574%, 90.028381%, 14.266968%)" offset="0.5625"/><stop stop-opacity="1" stop-color="rgb(98.886108%, 89.842224%, 14.634705%)" offset="0.578125"/><stop stop-opacity="1" stop-color="rgb(98.858643%, 89.654541%, 15.000916%)" offset="0.59375"/><stop stop-opacity="1" stop-color="rgb(98.829651%, 89.468384%, 15.368652%)" offset="0.609375"/><stop stop-opacity="1" stop-color="rgb(98.802185%, 89.280701%, 15.736389%)" offset="0.625"/><stop stop-opacity="1" stop-color="rgb(98.774719%, 89.093018%, 16.1026%)" offset="0.640625"/><stop stop-opacity="1" stop-color="rgb(98.745728%, 88.90686%, 16.470337%)" offset="0.65625"/><stop stop-opacity="1" stop-color="rgb(98.718262%, 88.719177%, 16.836548%)" offset="0.671875"/><stop stop-opacity="1" stop-color="rgb(98.690796%, 88.53302%, 17.204285%)" offset="0.6875"/><stop stop-opacity="1" stop-color="rgb(98.66333%, 88.345337%, 17.570496%)" offset="0.703125"/><stop stop-opacity="1" stop-color="rgb(98.634338%, 88.15918%, 17.938232%)" offset="0.71875"/><stop stop-opacity="1" stop-color="rgb(98.606873%, 87.971497%, 18.304443%)" offset="0.734375"/><stop stop-opacity="1" stop-color="rgb(98.579407%, 87.785339%, 18.67218%)" offset="0.75"/><stop stop-opacity="1" stop-color="rgb(98.550415%, 87.597656%, 19.039917%)" offset="0.765625"/><stop stop-opacity="1" stop-color="rgb(98.522949%, 87.409973%, 19.406128%)" offset="0.78125"/><stop stop-opacity="1" stop-color="rgb(98.495483%, 87.223816%, 19.773865%)" offset="0.796875"/><stop stop-opacity="1" stop-color="rgb(98.468018%, 87.036133%, 20.140076%)" offset="0.8125"/><stop stop-opacity="1" stop-color="rgb(98.439026%, 86.849976%, 20.507812%)" offset="0.828125"/><stop stop-opacity="1" stop-color="rgb(98.41156%, 86.662292%, 20.874023%)" offset="0.84375"/><stop stop-opacity="1" stop-color="rgb(98.384094%, 86.476135%, 21.24176%)" offset="0.859375"/><stop stop-opacity="1" stop-color="rgb(98.355103%, 86.288452%, 21.607971%)" offset="0.875"/><stop stop-opacity="1" stop-color="rgb(98.327637%, 86.100769%, 21.975708%)" offset="0.890625"/><stop stop-opacity="1" stop-color="rgb(98.300171%, 85.914612%, 22.341919%)" offset="0.90625"/><stop stop-opacity="1" stop-color="rgb(98.272705%, 85.726929%, 22.709656%)" offset="0.921875"/><stop stop-opacity="1" stop-color="rgb(98.243713%, 85.540771%, 23.077393%)" offset="0.9375"/><stop stop-opacity="1" stop-color="rgb(98.216248%, 85.353088%, 23.443604%)" offset="0.953125"/><stop stop-opacity="1" stop-color="rgb(98.188782%, 85.166931%, 23.81134%)" offset="0.96875"/><stop stop-opacity="1" stop-color="rgb(98.15979%, 84.979248%, 24.177551%)" offset="0.984375"/><stop stop-opacity="1" stop-color="rgb(98.132324%, 84.793091%, 24.545288%)" offset="1"/></linearGradient><mask id="ed81586c87"><g filter="url(#29ba41cc51)"><rect x="-19.487999" width="233.855988" fill="#000000" y="-14.475" height="173.699997" fill-opacity="0.32"/></g></mask><clipPath id="0398a4c5f6"><path d="M 24 27 L 57 27 L 57 58.101562 L 24 58.101562 Z M 24 27 " clip-rule="nonzero"/></clipPath><clipPath id="3db09f7b5e"><path d="M 37 0.449219 L 70 0.449219 L 70 31 L 37 31 Z M 37 0.449219 " clip-rule="nonzero"/></clipPath><clipPath id="c4a380b203"><path d="M 1.140625 12 L 34 12 L 34 40 L 1.140625 40 Z M 1.140625 12 " clip-rule="nonzero"/></clipPath><clipPath id="0f16ebc342"><path d="M 1.140625 11 L 34 11 L 34 39 L 1.140625 39 Z M 1.140625 11 " clip-rule="nonzero"/></clipPath><clipPath id="9b2c593cf5"><path d="M 1.140625 10 L 34 10 L 34 41 L 1.140625 41 Z M 1.140625 10 " clip-rule="nonzero"/></clipPath><clipPath id="6c8edd91d2"><rect x="0" width="71" y="0" height="60"/></clipPath></defs><g clip-path="url(#a035beaacf)"><g clip-path="url(#819ac0a6d6)"><path fill="#623b87" d="M 0.109375 0 L 194.773438 0 L 194.773438 211.394531 L 0.109375 211.394531 Z M 0.109375 0 " fill-opacity="1" fill-rule="nonzero"/></g></g><g clip-path="url(#8380b7064e)"><g mask="url(#b8abdc68db)"><g transform="matrix(1, 0, 0, 1, 48, 97)"><g clip-path="url(#ebc99a8981)"><g clip-path="url(#e43bdbf821)"><path fill="#000000" d="M 50.246094 1.496094 L 49.121094 2.621094 L 48.523438 1.375 L 42.632812 2.585938 L 41.820312 3.398438 L 42.132812 2.714844 L 41.21875 2.210938 C 39.632812 1.328125 37.929688 0.882812 36.113281 0.871094 C 33.574219 0.871094 31.382812 1.824219 29.832031 3.433594 L 28.753906 4.511719 L 28.824219 0.984375 L 18.847656 1.441406 L 17.066406 3.230469 L 17.128906 1.238281 L 16.242188 1.070312 C 15.070312 0.839844 13.886719 0.722656 12.691406 0.714844 C 9.996094 0.714844 7.949219 1.402344 6.695312 2.671875 C 5.621094 3.75 4.542969 4.828125 3.46875 5.90625 C 2.480469 6.875 1.941406 8.191406 1.941406 9.820312 C 1.941406 11.472656 2.664062 12.769531 4.027344 13.582031 C 4.117188 13.632812 4.210938 13.683594 4.308594 13.730469 L 4.027344 14.011719 L 0.957031 18.496094 L 1.496094 19.179688 C 2.914062 20.988281 5.613281 22.113281 8.535156 22.113281 C 10.523438 22.113281 12.359375 21.582031 13.707031 20.613281 C 14.019531 20.390625 14.3125 20.140625 14.578125 19.863281 C 14.773438 19.667969 14.96875 19.472656 15.164062 19.277344 L 15.023438 21.277344 L 24.132812 22.285156 L 26.566406 19.832031 C 28.152344 21.519531 30.300781 22.445312 32.410156 22.445312 C 33.417969 22.445312 34.386719 22.246094 35.3125 21.847656 C 36.238281 21.449219 37.046875 20.886719 37.742188 20.15625 C 38.375 19.523438 39.007812 18.890625 39.636719 18.257812 L 39.710938 21.359375 L 45.730469 22.035156 L 47.53125 20.230469 L 48.835938 22.4375 L 52.355469 21.660156 L 55.652344 18.355469 L 57.054688 1.082031 Z M 50.246094 1.496094 " fill-opacity="1" fill-rule="nonzero"/></g><g clip-path="url(#bb935756c4)"><path fill="#000000" d="M 81.707031 0.773438 C 80.035156 0.769531 78.425781 1.082031 76.875 1.710938 L 76.671875 1.796875 L 76.539062 0.902344 L 71.191406 1.425781 L 70.046875 2.574219 L 70.339844 1.527344 L 63.871094 0.765625 L 60.574219 4.070312 L 60.421875 5.125 C 60.199219 6.6875 60.078125 8.257812 60.058594 9.839844 C 60.058594 13.265625 60.597656 16.242188 61.617188 18.449219 C 62.84375 21.105469 64.703125 22.511719 66.996094 22.511719 C 67.699219 22.519531 68.375 22.382812 69.019531 22.109375 C 69.667969 21.835938 70.230469 21.445312 70.714844 20.9375 L 73.734375 17.914062 L 74.042969 22.367188 L 80.433594 21.886719 L 83.730469 18.582031 L 83.457031 16.578125 C 84.121094 16.234375 84.710938 15.792969 85.230469 15.257812 L 88.457031 12.023438 C 89.019531 11.464844 89.457031 10.820312 89.765625 10.085938 C 90.074219 9.351562 90.230469 8.589844 90.234375 7.792969 C 90.238281 5.683594 89.40625 0.773438 81.707031 0.773438 Z M 81.707031 0.773438 " fill-opacity="1" fill-rule="nonzero"/></g></g></g></g></g><g clip-path="url(#5ef44ab908)"><path fill="#000000" d="M 134.800781 109.847656 C 134.941406 109.828125 135.070312 109.804688 135.199219 109.777344 C 139.839844 109.054688 141.980469 106.125 141.980469 103.386719 C 141.980469 101.28125 141.074219 96.367188 132.703125 96.367188 C 131.550781 96.371094 130.414062 96.496094 129.292969 96.75 C 128.59375 96.890625 127.898438 97.039062 127.203125 97.191406 L 127.097656 96.5 L 121.28125 97.019531 L 120.296875 97.300781 L 120.351562 97.125 L 113.316406 96.359375 L 110.027344 97.765625 L 109.886719 98.820312 C 109.691406 100.386719 109.585938 101.957031 109.574219 103.535156 C 109.574219 106.960938 110.050781 109.9375 110.957031 112.144531 C 112.046875 114.804688 113.703125 116.210938 115.738281 116.210938 C 116.21875 116.210938 116.679688 116.132812 117.132812 115.972656 C 118.710938 115.472656 120.304688 115.015625 121.910156 114.59375 L 122.003906 116.0625 L 127.6875 115.582031 L 134.90625 114.175781 L 134.28125 109.945312 C 134.453125 109.910156 134.636719 109.882812 134.800781 109.847656 Z M 134.800781 109.847656 " fill-opacity="1" fill-rule="nonzero"/></g><g clip-path="url(#e6ec5c8b4e)"><path fill="#000000" d="M 98.503906 97.089844 L 97.914062 98.496094 L 97.941406 99.480469 L 96.625 96.972656 L 90.226562 98.183594 L 90.25 99.058594 L 89.6875 98.3125 L 88.695312 97.808594 C 86.953125 96.921875 85.101562 96.476562 83.144531 96.46875 C 81.382812 96.449219 79.71875 96.851562 78.164062 97.683594 L 75.21875 96.578125 L 64.382812 97.035156 L 64.382812 97.246094 L 62.507812 96.832031 L 61.542969 96.664062 C 60.269531 96.4375 58.984375 96.316406 57.6875 96.308594 C 52.539062 96.308594 49.585938 98.417969 49.585938 102.109375 C 49.585938 103.761719 50.371094 105.0625 51.851562 105.871094 C 52.625 106.292969 53.507812 106.546875 54.378906 106.738281 L 53.984375 106.652344 L 51.859375 106.300781 L 48.515625 110.789062 L 49.097656 111.472656 C 50.304688 112.890625 52.367188 113.886719 54.738281 114.25 C 57.082031 114.652344 59.417969 115.09375 61.75 115.578125 C 62.410156 115.730469 63.082031 115.808594 63.761719 115.808594 C 65.367188 115.808594 66.859375 115.367188 68.019531 114.5625 L 69.527344 114.972656 L 77.625 115.980469 L 77.765625 113.265625 C 78.203125 113.546875 78.660156 113.792969 79.140625 113.996094 C 80.085938 114.410156 81.023438 114.851562 81.945312 115.332031 C 82.890625 115.867188 83.902344 116.140625 84.988281 116.148438 C 87.074219 116.148438 89.257812 115.003906 90.609375 112.574219 L 90.640625 113.65625 L 91.480469 115.0625 L 96.832031 115.738281 L 97.183594 114.332031 L 97.042969 111.296875 L 99.585938 116.140625 L 102.714844 115.359375 L 104.378906 113.953125 L 105.90625 96.675781 Z M 89.21875 103.378906 L 90.296875 100.714844 L 90.363281 103.328125 Z M 89.21875 103.378906 " fill-opacity="1" fill-rule="nonzero"/></g><g clip-path="url(#7f2c852b29)"><path fill="#212121" d="M 56.75 114.402344 C 53.570312 114.402344 50.636719 113.277344 49.097656 111.472656 L 48.515625 110.789062 L 51.851562 106.300781 L 52.742188 106.917969 C 53.875 107.707031 55.175781 108.160156 56.308594 108.160156 C 57.011719 108.160156 57.746094 107.957031 57.8125 107.582031 C 57.492188 107.339844 56.324219 107.121094 55.609375 106.984375 C 54.382812 106.753906 52.992188 106.492188 51.851562 105.867188 C 50.371094 105.0625 49.585938 103.757812 49.585938 102.109375 C 49.585938 98.417969 52.539062 96.308594 57.6875 96.308594 C 58.984375 96.316406 60.269531 96.4375 61.542969 96.664062 L 62.507812 96.832031 L 62.3125 102.773438 C 63.867188 103.558594 65.128906 105.011719 65.128906 107.8125 C 65.128906 109.957031 64.171875 111.71875 62.371094 112.910156 C 60.902344 113.871094 58.90625 114.402344 56.75 114.402344 Z M 56.75 114.402344 " fill-opacity="1" fill-rule="nonzero"/></g><g clip-path="url(#e81416c368)"><path fill="#212121" d="M 63.800781 113.566406 L 64.246094 107.734375 L 65.878906 107.832031 L 66.085938 102.734375 L 64.574219 102.734375 L 64.382812 97.035156 L 75.21875 96.578125 L 75.09375 102.734375 L 73.066406 102.734375 L 72.679688 108.304688 L 74.109375 108.382812 L 73.699219 114.574219 Z M 63.800781 113.566406 " fill-opacity="1" fill-rule="nonzero"/></g><g clip-path="url(#2e2573675f)"><path fill="#212121" d="M 82.703125 114.742188 C 78.253906 114.742188 73.648438 111.273438 73.648438 105.464844 C 73.648438 100.25 77.640625 96.46875 83.144531 96.46875 C 85.097656 96.472656 86.949219 96.921875 88.695312 97.808594 L 89.6875 98.308594 L 87.136719 103.476562 L 91.015625 103.296875 L 91.15625 104.320312 C 91.195312 104.65625 91.214844 104.992188 91.207031 105.328125 C 91.203125 111.796875 86.796875 114.742188 82.703125 114.742188 Z M 82.84375 102.675781 C 80.785156 102.675781 80.519531 104.164062 80.519531 105.464844 C 80.519531 106.308594 80.9375 107.433594 81.628906 108.101562 L 81.542969 103.734375 L 85.945312 103.53125 L 85.871094 103.496094 C 84.816406 102.964844 83.738281 102.675781 82.84375 102.675781 Z M 82.84375 102.675781 " fill-opacity="1" fill-rule="nonzero"/></g><g clip-path="url(#217338bde7)"><path fill="#212121" d="M 96.949219 109.117188 L 97.179688 114.332031 L 90.640625 113.65625 L 90.230469 98.183594 L 96.628906 96.972656 L 98.652344 100.832031 L 98.503906 97.089844 L 105.90625 96.679688 L 104.382812 113.953125 L 100.554688 114.734375 Z M 96.949219 109.117188 " fill-opacity="1" fill-rule="nonzero"/></g><g clip-path="url(#27f3f9d38b)"><path fill="#212121" d="M 120.304688 114.804688 C 117.808594 114.804688 115.789062 113.398438 114.453125 110.738281 C 113.34375 108.539062 112.757812 105.554688 112.757812 102.128906 C 112.777344 100.546875 112.910156 98.976562 113.148438 97.417969 L 113.316406 96.359375 L 120.347656 97.121094 L 119.960938 98.417969 C 119.679688 99.355469 119.550781 100.949219 119.550781 102.027344 C 119.550781 106.222656 120.425781 107.078125 120.660156 107.078125 C 121.539062 107.078125 121.851562 104.6875 121.851562 102.449219 C 121.851562 101.03125 121.730469 99.628906 121.488281 98.230469 L 121.28125 97.027344 L 127.089844 96.503906 L 127.253906 97.542969 C 127.492188 99.136719 127.609375 100.742188 127.605469 102.355469 C 127.605469 104.628906 127.359375 107.894531 126.191406 110.527344 C 124.617188 114.0625 122.121094 114.804688 120.304688 114.804688 Z M 120.304688 114.804688 " fill-opacity="1" fill-rule="nonzero"/></g><g clip-path="url(#a53938b0cb)"><path fill="#212121" d="M 126.675781 97.605469 L 127.453125 97.304688 C 129.144531 96.671875 130.894531 96.363281 132.703125 96.367188 C 141.074219 96.367188 141.980469 101.277344 141.980469 103.386719 C 141.980469 106.304688 139.558594 109.433594 134.273438 109.890625 L 134.90625 114.175781 L 127.960938 114.65625 Z M 133.394531 103.871094 C 134.265625 103.5625 134.808594 103.152344 134.808594 102.769531 C 134.808594 102.539062 134.808594 102.113281 133.757812 102.113281 C 133.554688 102.113281 133.351562 102.132812 133.152344 102.167969 Z M 133.394531 103.871094 " fill-opacity="1" fill-rule="nonzero"/></g><path fill="#ffffff" d="M 56.75 113.417969 C 53.847656 113.417969 51.203125 112.433594 49.84375 110.832031 L 49.777344 110.746094 L 52.078125 107.652344 L 52.191406 107.730469 C 53.5 108.644531 54.964844 109.144531 56.316406 109.144531 C 57.832031 109.144531 58.808594 108.507812 58.808594 107.527344 C 58.808594 106.589844 57.414062 106.324219 55.796875 106.019531 C 53.46875 105.582031 50.574219 105.035156 50.574219 102.113281 C 50.566406 97.917969 55.027344 97.292969 57.6875 97.292969 C 58.925781 97.300781 60.15625 97.414062 61.378906 97.632812 L 61.5 97.65625 L 61.367188 101.640625 L 61.175781 101.558594 C 60.476562 101.246094 58.933594 100.910156 57.6875 100.910156 C 56.910156 100.910156 55.613281 101.050781 55.613281 101.949219 C 55.613281 102.542969 56.644531 102.640625 57.953125 102.765625 C 60.417969 102.996094 64.144531 103.347656 64.144531 107.804688 C 64.144531 109.601562 63.34375 111.082031 61.828125 112.082031 C 60.523438 112.945312 58.71875 113.417969 56.75 113.417969 Z M 56.75 113.417969 " fill-opacity="1" fill-rule="nonzero"/><path fill="#ffffff" d="M 64.851562 112.683594 L 65.152344 108.773438 L 66.820312 108.875 L 67.109375 101.75 L 65.523438 101.75 L 65.394531 97.980469 L 74.214844 97.605469 L 74.128906 101.75 L 72.148438 101.75 L 71.632812 109.230469 L 73.066406 109.308594 L 72.785156 113.492188 Z M 64.851562 112.683594 " fill-opacity="1" fill-rule="nonzero"/><path fill="#ffffff" d="M 82.703125 113.757812 C 78.734375 113.757812 74.628906 110.65625 74.628906 105.464844 C 74.628906 103.074219 75.507812 101.042969 77.175781 99.570312 C 78.71875 98.203125 80.84375 97.453125 83.144531 97.453125 C 84.941406 97.457031 86.644531 97.867188 88.25 98.6875 L 88.375 98.746094 L 86.4375 102.675781 L 86.308594 102.613281 C 85.121094 102.019531 83.890625 101.691406 82.84375 101.691406 C 81.335938 101.691406 79.535156 102.34375 79.535156 105.464844 C 79.535156 107.867188 81.324219 109.660156 82.925781 109.660156 C 83.988281 109.660156 84.753906 109.039062 85.09375 107.902344 L 82.605469 107.863281 L 82.539062 104.671875 L 90.164062 104.320312 L 90.179688 104.449219 C 90.214844 104.742188 90.226562 105.035156 90.222656 105.328125 C 90.222656 108.011719 89.386719 110.234375 87.8125 111.75 C 87.125 112.402344 86.335938 112.902344 85.453125 113.25 C 84.570312 113.597656 83.652344 113.769531 82.703125 113.757812 Z M 82.703125 113.757812 " fill-opacity="1" fill-rule="nonzero"/><path fill="#ffffff" d="M 95.804688 105.519531 L 96.148438 113.234375 L 91.597656 112.765625 L 91.234375 98.996094 L 96.097656 98.074219 L 99.804688 105.148438 L 99.523438 98.019531 L 104.828125 97.722656 L 103.46875 113.136719 L 101.019531 113.636719 Z M 95.804688 105.519531 " fill-opacity="1" fill-rule="nonzero"/><path fill="#ffffff" d="M 120.304688 113.820312 C 118.207031 113.820312 116.484375 112.601562 115.332031 110.296875 C 114.300781 108.226562 113.738281 105.402344 113.738281 102.128906 C 113.761719 100.601562 113.886719 99.082031 114.125 97.574219 L 114.144531 97.441406 L 119.070312 97.972656 L 119.023438 98.136719 C 118.710938 99.171875 118.570312 100.839844 118.570312 102.03125 C 118.570312 105.921875 119.3125 108.066406 120.660156 108.066406 C 122.125 108.066406 122.835938 106.230469 122.835938 102.453125 C 122.835938 100.976562 122.710938 99.511719 122.457031 98.058594 L 122.433594 97.90625 L 126.265625 97.5625 L 126.285156 97.691406 C 126.515625 99.234375 126.628906 100.789062 126.625 102.355469 C 126.625 104.535156 126.394531 107.652344 125.292969 110.128906 C 124.203125 112.574219 122.523438 113.820312 120.304688 113.820312 Z M 120.304688 113.820312 " fill-opacity="1" fill-rule="nonzero"/><path fill="#ffffff" d="M 127.710938 98.257812 L 127.808594 98.222656 C 129.386719 97.636719 131.019531 97.34375 132.703125 97.351562 C 138.050781 97.351562 140.996094 99.496094 140.996094 103.386719 C 140.996094 104.863281 140.285156 106.230469 138.984375 107.234375 C 137.570312 108.332031 135.554688 108.921875 133.144531 108.960938 L 133.78125 113.269531 L 128.871094 113.609375 Z M 132.582031 105.117188 C 133.65625 104.882812 135.792969 104.246094 135.792969 102.773438 C 135.792969 101.304688 134.371094 101.128906 133.757812 101.128906 C 133.171875 101.136719 132.605469 101.246094 132.058594 101.460938 Z M 132.582031 105.117188 " fill-opacity="1" fill-rule="nonzero"/><path fill="#fff800" d="M 56.75 112.996094 C 54.113281 112.996094 51.621094 112.113281 50.3125 110.722656 L 52.164062 108.226562 C 53.484375 109.089844 54.945312 109.5625 56.304688 109.5625 C 58.046875 109.5625 59.214844 108.746094 59.214844 107.523438 C 59.214844 106.234375 57.585938 105.929688 55.859375 105.605469 C 53.574219 105.171875 50.984375 104.683594 50.984375 102.109375 C 50.988281 100.105469 52.148438 97.714844 57.6875 97.714844 C 58.820312 97.722656 59.945312 97.820312 61.066406 98.007812 L 60.96875 101.027344 C 59.898438 100.683594 58.804688 100.503906 57.6875 100.488281 C 55.515625 100.488281 55.191406 101.402344 55.191406 101.949219 C 55.191406 102.933594 56.453125 103.046875 57.910156 103.183594 C 60.5 103.425781 63.722656 103.730469 63.722656 107.804688 C 63.722656 109.453125 62.988281 110.8125 61.597656 111.730469 C 60.359375 112.546875 58.636719 112.996094 56.75 112.996094 Z M 56.75 112.996094 " fill-opacity="1" fill-rule="nonzero"/><path fill="#fff800" d="M 65.300781 112.308594 L 65.539062 109.21875 L 67.222656 109.320312 L 67.546875 101.328125 L 65.929688 101.328125 L 65.828125 98.382812 L 73.785156 98.046875 L 73.71875 101.328125 L 71.757812 101.328125 L 71.179688 109.628906 L 72.617188 109.707031 L 72.398438 113.03125 Z M 65.300781 112.308594 " fill-opacity="1" fill-rule="nonzero"/><path fill="#fff800" d="M 82.703125 113.335938 C 78.941406 113.335938 75.050781 110.394531 75.050781 105.464844 C 75.050781 103.203125 75.882812 101.273438 77.453125 99.886719 C 78.921875 98.589844 80.945312 97.875 83.144531 97.875 C 84.777344 97.878906 86.335938 98.234375 87.8125 98.9375 L 86.246094 102.113281 C 85.078125 101.566406 83.878906 101.269531 82.84375 101.269531 C 81.453125 101.269531 79.117188 101.816406 79.117188 105.46875 C 79.117188 107.648438 80.746094 110.085938 82.925781 110.085938 C 84.238281 110.085938 85.191406 109.265625 85.550781 107.835938 L 85.636719 107.492188 L 83.019531 107.445312 L 82.972656 105.074219 L 89.789062 104.761719 C 89.800781 104.949219 89.800781 105.132812 89.800781 105.324219 C 89.800781 110.859375 86.238281 113.335938 82.703125 113.335938 Z M 82.703125 113.335938 " fill-opacity="1" fill-rule="nonzero"/><path fill="#fff800" d="M 95.316406 103.980469 L 95.707031 112.765625 L 92.007812 112.386719 L 91.664062 99.34375 L 95.867188 98.546875 L 99.71875 105.894531 L 100.25 105.753906 L 99.960938 98.417969 L 104.367188 98.171875 L 103.078125 112.785156 L 101.21875 113.164062 Z M 95.316406 103.980469 " fill-opacity="1" fill-rule="nonzero"/><path fill="#fff800" d="M 120.304688 113.398438 C 118.347656 113.398438 116.796875 112.289062 115.707031 110.109375 C 114.710938 108.125 114.164062 105.292969 114.164062 102.128906 C 114.183594 100.710938 114.292969 99.304688 114.5 97.902344 L 118.53125 98.335938 C 118.265625 99.414062 118.148438 100.925781 118.148438 102.027344 C 118.148438 106.246094 119.015625 108.484375 120.660156 108.484375 C 122.984375 108.484375 123.253906 105.039062 123.253906 102.449219 C 123.253906 101.050781 123.144531 99.664062 122.921875 98.285156 L 125.90625 98.015625 C 126.109375 99.457031 126.207031 100.902344 126.203125 102.355469 C 126.203125 104.492188 125.976562 107.554688 124.910156 109.957031 C 123.890625 112.238281 122.34375 113.398438 120.304688 113.398438 Z M 120.304688 113.398438 " fill-opacity="1" fill-rule="nonzero"/><path fill="#fff800" d="M 128.152344 98.542969 C 129.625 98.023438 131.140625 97.769531 132.703125 97.773438 C 137.78125 97.773438 140.578125 99.769531 140.578125 103.386719 C 140.578125 104.730469 139.921875 105.980469 138.730469 106.902344 C 137.355469 107.96875 135.363281 108.535156 132.976562 108.542969 L 132.65625 108.542969 L 133.296875 112.878906 L 129.25 113.160156 Z M 133.765625 100.707031 C 133.082031 100.714844 132.429688 100.847656 131.800781 101.109375 L 131.601562 101.195312 L 132.230469 105.621094 L 132.519531 105.5625 C 134.871094 105.097656 136.214844 104.078125 136.214844 102.769531 C 136.214844 101.457031 135.296875 100.707031 133.757812 100.707031 Z M 133.765625 100.707031 " fill-opacity="1" fill-rule="nonzero"/><g clip-path="url(#bb51919b1d)"><g clip-path="url(#f4c255f5de)"><path fill="url(#b9822b0351)" d="M 50.871094 98.136719 L 50.871094 112.574219 L 63.304688 112.574219 L 63.304688 98.136719 Z M 50.871094 98.136719 " fill-rule="nonzero"/></g></g><g clip-path="url(#e78f029ce0)"><g clip-path="url(#3d3f498048)"><path fill="url(#ac6cb5c0de)" d="M 65.753906 98.484375 L 65.753906 112.566406 L 73.355469 112.566406 L 73.355469 98.484375 Z M 65.753906 98.484375 " fill-rule="nonzero"/></g></g><g clip-path="url(#91e4ac9db6)"><g clip-path="url(#7729e7ad10)"><path fill="url(#84fc0fad5f)" d="M 75.472656 98.296875 L 75.472656 112.914062 L 89.378906 112.914062 L 89.378906 98.296875 Z M 75.472656 98.296875 " fill-rule="nonzero"/></g></g><g clip-path="url(#1095ffaccf)"><g clip-path="url(#7f8d31856c)"><path fill="url(#6dbc6da619)" d="M 92.09375 98.621094 L 92.09375 112.695312 L 103.902344 112.695312 L 103.902344 98.621094 Z M 92.09375 98.621094 " fill-rule="nonzero"/></g></g><g clip-path="url(#a12e879a7c)"><g clip-path="url(#56881f72dc)"><path fill="url(#a0d9250d31)" d="M 114.578125 98.363281 L 114.578125 112.976562 L 125.785156 112.976562 L 125.785156 98.363281 Z M 114.578125 98.363281 " fill-rule="nonzero"/></g></g><g clip-path="url(#045583a087)"><g clip-path="url(#b2bec93a38)"><path fill="url(#2265f6962b)" d="M 128.597656 98.199219 L 128.597656 112.707031 L 140.15625 112.707031 L 140.15625 98.199219 Z M 128.597656 98.199219 " fill-rule="nonzero"/></g></g><g mask="url(#ed81586c87)"><g transform="matrix(1, 0, 0, 1, 72, 14)"><g clip-path="url(#6c8edd91d2)"><path fill="#000013" d="M 56.824219 43.71875 C 42.9375 44.730469 41.953125 45.546875 40.742188 57.128906 C 39.53125 45.546875 38.546875 44.730469 24.65625 43.71875 C 38.546875 42.707031 39.53125 41.890625 40.742188 30.308594 C 41.953125 41.890625 42.9375 42.707031 56.824219 43.71875 Z M 56.824219 43.71875 " fill-opacity="1" fill-rule="nonzero"/><path fill="#f2d606" d="M 56.21875 43.035156 C 42.328125 44.042969 41.347656 44.863281 40.136719 56.445312 C 38.925781 44.863281 37.941406 44.042969 24.050781 43.035156 C 37.941406 42.023438 38.921875 41.203125 40.136719 29.621094 C 41.347656 41.203125 42.328125 42.023438 56.21875 43.035156 Z M 56.21875 43.035156 " fill-opacity="1" fill-rule="nonzero"/><g clip-path="url(#0398a4c5f6)"><path fill="#000013" d="M 40.136719 58.101562 L 39.964844 56.460938 C 38.761719 44.953125 37.867188 44.210938 24.039062 43.207031 L 24.039062 42.863281 C 37.867188 41.855469 38.761719 41.113281 39.964844 29.605469 L 40.136719 27.96875 L 40.304688 29.605469 C 41.511719 41.113281 42.402344 41.855469 56.230469 42.863281 L 56.230469 43.207031 C 42.402344 44.210938 41.511719 44.953125 40.304688 56.460938 Z M 26.296875 43.035156 C 37.554688 43.964844 39.027344 45.28125 40.136719 54.863281 C 41.242188 45.28125 42.714844 43.964844 53.976562 43.035156 C 42.714844 42.105469 41.242188 40.789062 40.136719 31.207031 C 39.027344 40.789062 37.558594 42.105469 26.296875 43.035156 Z M 26.296875 43.035156 " fill-opacity="1" fill-rule="nonzero"/></g><path fill="#000013" d="M 69.992188 16.203125 C 56.101562 17.214844 55.121094 18.035156 53.910156 29.617188 C 52.699219 18.035156 51.714844 17.214844 37.824219 16.203125 C 51.714844 15.195312 52.695312 14.375 53.910156 2.792969 C 55.121094 14.375 56.101562 15.195312 69.992188 16.203125 Z M 69.992188 16.203125 " fill-opacity="1" fill-rule="nonzero"/><path fill="#f2d606" d="M 69.386719 15.519531 C 55.496094 16.53125 54.515625 17.347656 53.304688 28.929688 C 52.09375 17.347656 51.109375 16.53125 37.21875 15.519531 C 51.109375 14.511719 52.089844 13.691406 53.304688 2.109375 C 54.511719 13.691406 55.496094 14.511719 69.386719 15.519531 Z M 69.386719 15.519531 " fill-opacity="1" fill-rule="nonzero"/><g clip-path="url(#3db09f7b5e)"><path fill="#000013" d="M 53.304688 30.585938 L 53.132812 28.945312 C 51.929688 17.4375 51.035156 16.695312 37.207031 15.691406 L 37.207031 15.347656 C 51.035156 14.339844 51.925781 13.597656 53.132812 2.089844 L 53.304688 0.453125 L 53.472656 2.089844 C 54.675781 13.597656 55.570312 14.339844 69.398438 15.347656 L 69.398438 15.691406 C 55.570312 16.695312 54.675781 17.4375 53.472656 28.945312 Z M 39.460938 15.519531 C 50.722656 16.449219 52.195312 17.765625 53.304688 27.347656 C 54.410156 17.765625 55.878906 16.449219 67.144531 15.519531 C 55.882812 14.589844 54.410156 13.273438 53.304688 3.691406 C 52.195312 13.273438 50.726562 14.589844 39.460938 15.519531 Z M 39.460938 15.519531 " fill-opacity="1" fill-rule="nonzero"/></g><g clip-path="url(#c4a380b203)"><path fill="#000013" d="M 33.945312 25.894531 C 20.054688 26.90625 19.070312 27.726562 17.859375 39.304688 C 16.648438 27.726562 15.667969 26.90625 1.777344 25.894531 C 15.667969 24.886719 16.648438 24.066406 17.859375 12.484375 C 19.070312 24.066406 20.054688 24.886719 33.945312 25.894531 Z M 33.945312 25.894531 " fill-opacity="1" fill-rule="nonzero"/></g><g clip-path="url(#0f16ebc342)"><path fill="#f2d606" d="M 33.335938 25.210938 C 19.445312 26.21875 18.464844 27.039062 17.253906 38.621094 C 16.042969 27.039062 15.058594 26.21875 1.167969 25.210938 C 15.058594 24.199219 16.039062 23.382812 17.253906 11.800781 C 18.460938 23.382812 19.445312 24.199219 33.335938 25.210938 Z M 33.335938 25.210938 " fill-opacity="1" fill-rule="nonzero"/></g><g clip-path="url(#9b2c593cf5)"><path fill="#000013" d="M 17.253906 40.277344 L 17.082031 38.640625 C 15.878906 27.132812 14.984375 26.386719 1.15625 25.382812 L 1.15625 25.039062 C 14.984375 24.035156 15.878906 23.289062 17.082031 11.78125 L 17.253906 10.144531 L 17.425781 11.78125 C 18.628906 23.289062 19.523438 24.035156 33.347656 25.039062 L 33.347656 25.382812 C 19.519531 26.386719 18.628906 27.132812 17.425781 38.640625 Z M 3.414062 25.210938 C 14.675781 26.140625 16.148438 27.457031 17.253906 37.039062 C 18.359375 27.457031 19.832031 26.140625 31.09375 25.210938 C 19.832031 24.28125 18.359375 22.964844 17.253906 13.382812 C 16.148438 22.964844 14.675781 24.28125 3.414062 25.210938 Z M 3.414062 25.210938 " fill-opacity="1" fill-rule="nonzero"/></g></g></g></g><g fill="#ffffff" fill-opacity="1"><g transform="translate(35.311451, 64.00587)"><g><path d="M 1.515625 -7.953125 L 1.28125 -5.625 L 0.359375 -5.625 L 0.359375 -8.75 L 1.515625 -8.75 Z M 3.359375 -7.953125 L 3.140625 -5.625 L 2.21875 -5.625 L 2.21875 -8.75 L 3.359375 -8.75 Z M 3.359375 -7.953125 "/></g></g><g transform="translate(39.05027, 64.00587)"><g><path d="M 5.03125 -2.171875 C 5.03125 -2.492188 4.914062 -2.738281 4.6875 -2.90625 C 4.46875 -3.082031 4.0625 -3.265625 3.46875 -3.453125 C 2.875 -3.648438 2.40625 -3.84375 2.0625 -4.03125 C 1.125 -4.539062 0.65625 -5.222656 0.65625 -6.078125 C 0.65625 -6.523438 0.78125 -6.925781 1.03125 -7.28125 C 1.28125 -7.632812 1.640625 -7.910156 2.109375 -8.109375 C 2.585938 -8.304688 3.117188 -8.40625 3.703125 -8.40625 C 4.296875 -8.40625 4.820312 -8.296875 5.28125 -8.078125 C 5.75 -7.859375 6.109375 -7.550781 6.359375 -7.15625 C 6.617188 -6.769531 6.75 -6.332031 6.75 -5.84375 L 5.046875 -5.84375 C 5.046875 -6.21875 4.925781 -6.507812 4.6875 -6.71875 C 4.445312 -6.9375 4.109375 -7.046875 3.671875 -7.046875 C 3.253906 -7.046875 2.929688 -6.957031 2.703125 -6.78125 C 2.472656 -6.601562 2.359375 -6.367188 2.359375 -6.078125 C 2.359375 -5.804688 2.492188 -5.578125 2.765625 -5.390625 C 3.035156 -5.210938 3.4375 -5.046875 3.96875 -4.890625 C 4.9375 -4.597656 5.640625 -4.234375 6.078125 -3.796875 C 6.523438 -3.367188 6.75 -2.832031 6.75 -2.1875 C 6.75 -1.46875 6.476562 -0.90625 5.9375 -0.5 C 5.394531 -0.09375 4.664062 0.109375 3.75 0.109375 C 3.101562 0.109375 2.519531 -0.00390625 2 -0.234375 C 1.476562 -0.472656 1.078125 -0.789062 0.796875 -1.1875 C 0.523438 -1.59375 0.390625 -2.066406 0.390625 -2.609375 L 2.109375 -2.609375 C 2.109375 -1.691406 2.65625 -1.234375 3.75 -1.234375 C 4.15625 -1.234375 4.46875 -1.316406 4.6875 -1.484375 C 4.914062 -1.648438 5.03125 -1.878906 5.03125 -2.171875 Z M 5.03125 -2.171875 "/></g></g><g transform="translate(46.214917, 64.00587)"><g><path d="M 6.984375 -6.90625 L 4.4375 -6.90625 L 4.4375 0 L 2.734375 0 L 2.734375 -6.90625 L 0.234375 -6.90625 L 0.234375 -8.28125 L 6.984375 -8.28125 Z M 6.984375 -6.90625 "/></g></g><g transform="translate(53.42509, 64.00587)"><g><path d="M 5.421875 -1.703125 L 2.421875 -1.703125 L 1.859375 0 L 0.046875 0 L 3.125 -8.28125 L 4.703125 -8.28125 L 7.8125 0 L 6 0 Z M 2.890625 -3.09375 L 4.953125 -3.09375 L 3.921875 -6.1875 Z M 2.890625 -3.09375 "/></g></g><g transform="translate(61.266935, 64.00587)"><g><path d="M 3.59375 -4.546875 L 5.328125 -8.28125 L 7.1875 -8.28125 L 4.46875 -3 L 4.46875 0 L 2.734375 0 L 2.734375 -3 L 0.015625 -8.28125 L 1.890625 -8.28125 Z M 3.59375 -4.546875 "/></g></g><g transform="translate(68.471417, 64.00587)"><g/></g></g><g fill="#fb9003" fill-opacity="1"><g transform="translate(71.382575, 64.00587)"><g><path d="M 7.015625 -8.28125 L 7.015625 -2.828125 C 7.015625 -1.921875 6.726562 -1.203125 6.15625 -0.671875 C 5.59375 -0.148438 4.820312 0.109375 3.84375 0.109375 C 2.875 0.109375 2.101562 -0.144531 1.53125 -0.65625 C 0.957031 -1.164062 0.664062 -1.867188 0.65625 -2.765625 L 0.65625 -8.28125 L 2.375 -8.28125 L 2.375 -2.8125 C 2.375 -2.269531 2.5 -1.875 2.75 -1.625 C 3.007812 -1.382812 3.375 -1.265625 3.84375 -1.265625 C 4.800781 -1.265625 5.285156 -1.765625 5.296875 -2.765625 L 5.296875 -8.28125 Z M 7.015625 -8.28125 "/></g></g><g transform="translate(79.053698, 64.00587)"><g><path d="M 2.453125 -2.921875 L 2.453125 0 L 0.734375 0 L 0.734375 -8.28125 L 3.96875 -8.28125 C 4.59375 -8.28125 5.140625 -8.164062 5.609375 -7.9375 C 6.085938 -7.71875 6.453125 -7.394531 6.703125 -6.96875 C 6.960938 -6.550781 7.09375 -6.078125 7.09375 -5.546875 C 7.09375 -4.734375 6.8125 -4.09375 6.25 -3.625 C 5.695312 -3.15625 4.925781 -2.921875 3.9375 -2.921875 Z M 2.453125 -4.296875 L 3.96875 -4.296875 C 4.425781 -4.296875 4.769531 -4.398438 5 -4.609375 C 5.238281 -4.828125 5.359375 -5.132812 5.359375 -5.53125 C 5.359375 -5.9375 5.238281 -6.265625 5 -6.515625 C 4.757812 -6.765625 4.429688 -6.894531 4.015625 -6.90625 L 2.453125 -6.90625 Z M 2.453125 -4.296875 "/></g></g><g transform="translate(86.571171, 64.00587)"><g><path d="M 0.734375 0 L 0.734375 -8.28125 L 3.296875 -8.28125 C 4.015625 -8.28125 4.660156 -8.113281 5.234375 -7.78125 C 5.816406 -7.457031 6.269531 -6.992188 6.59375 -6.390625 C 6.914062 -5.785156 7.078125 -5.097656 7.078125 -4.328125 L 7.078125 -3.953125 C 7.078125 -3.179688 6.914062 -2.492188 6.59375 -1.890625 C 6.28125 -1.296875 5.832031 -0.832031 5.25 -0.5 C 4.675781 -0.164062 4.03125 0 3.3125 0 Z M 2.453125 -6.90625 L 2.453125 -1.375 L 3.265625 -1.375 C 3.941406 -1.375 4.453125 -1.59375 4.796875 -2.03125 C 5.148438 -2.46875 5.332031 -3.09375 5.34375 -3.90625 L 5.34375 -4.34375 C 5.34375 -5.175781 5.164062 -5.8125 4.8125 -6.25 C 4.46875 -6.6875 3.960938 -6.90625 3.296875 -6.90625 Z M 2.453125 -6.90625 "/></g></g><g transform="translate(94.145552, 64.00587)"><g><path d="M 5.421875 -1.703125 L 2.421875 -1.703125 L 1.859375 0 L 0.046875 0 L 3.125 -8.28125 L 4.703125 -8.28125 L 7.8125 0 L 6 0 Z M 2.890625 -3.09375 L 4.953125 -3.09375 L 3.921875 -6.1875 Z M 2.890625 -3.09375 "/></g></g><g transform="translate(101.987398, 64.00587)"><g><path d="M 6.984375 -6.90625 L 4.4375 -6.90625 L 4.4375 0 L 2.734375 0 L 2.734375 -6.90625 L 0.234375 -6.90625 L 0.234375 -8.28125 L 6.984375 -8.28125 Z M 6.984375 -6.90625 "/></g></g><g transform="translate(109.19757, 64.00587)"><g><path d="M 5.71875 -3.59375 L 2.453125 -3.59375 L 2.453125 -1.375 L 6.296875 -1.375 L 6.296875 0 L 0.734375 0 L 0.734375 -8.28125 L 6.28125 -8.28125 L 6.28125 -6.90625 L 2.453125 -6.90625 L 2.453125 -4.921875 L 5.71875 -4.921875 Z M 5.71875 -3.59375 "/></g></g><g transform="translate(115.753308, 64.00587)"><g><path d="M 0.734375 0 L 0.734375 -8.28125 L 3.296875 -8.28125 C 4.015625 -8.28125 4.660156 -8.113281 5.234375 -7.78125 C 5.816406 -7.457031 6.269531 -6.992188 6.59375 -6.390625 C 6.914062 -5.785156 7.078125 -5.097656 7.078125 -4.328125 L 7.078125 -3.953125 C 7.078125 -3.179688 6.914062 -2.492188 6.59375 -1.890625 C 6.28125 -1.296875 5.832031 -0.832031 5.25 -0.5 C 4.675781 -0.164062 4.03125 0 3.3125 0 Z M 2.453125 -6.90625 L 2.453125 -1.375 L 3.265625 -1.375 C 3.941406 -1.375 4.453125 -1.59375 4.796875 -2.03125 C 5.148438 -2.46875 5.332031 -3.09375 5.34375 -3.90625 L 5.34375 -4.34375 C 5.34375 -5.175781 5.164062 -5.8125 4.8125 -6.25 C 4.46875 -6.6875 3.960938 -6.90625 3.296875 -6.90625 Z M 2.453125 -6.90625 "/></g></g></g><g fill="#ffffff" fill-opacity="1"><g transform="translate(123.333152, 64.00587)"><g/></g><g transform="translate(126.235431, 64.00587)"><g><path d="M 7.1875 -2.390625 L 8.3125 -8.28125 L 10.015625 -8.28125 L 8.171875 0 L 6.453125 0 L 5.109375 -5.546875 L 3.75 0 L 2.03125 0 L 0.203125 -8.28125 L 1.90625 -8.28125 L 3.015625 -2.40625 L 4.390625 -8.28125 L 5.828125 -8.28125 Z M 7.1875 -2.390625 "/></g></g><g transform="translate(136.427554, 64.00587)"><g><path d="M 2.5625 0 L 0.84375 0 L 0.84375 -8.28125 L 2.5625 -8.28125 Z M 2.5625 0 "/></g></g><g transform="translate(139.824929, 64.00587)"><g><path d="M 6.984375 -6.90625 L 4.4375 -6.90625 L 4.4375 0 L 2.734375 0 L 2.734375 -6.90625 L 0.234375 -6.90625 L 0.234375 -8.28125 L 6.984375 -8.28125 Z M 6.984375 -6.90625 "/></g></g><g transform="translate(147.035102, 64.00587)"><g><path d="M 7.484375 0 L 5.78125 0 L 5.78125 -3.546875 L 2.453125 -3.546875 L 2.453125 0 L 0.734375 0 L 0.734375 -8.28125 L 2.453125 -8.28125 L 2.453125 -4.921875 L 5.78125 -4.921875 L 5.78125 -8.28125 L 7.484375 -8.28125 Z M 7.484375 0 "/></g></g></g><g fill="#ffffff" fill-opacity="1"><g transform="translate(44.703152, 80.166977)"><g><path d="M 5.71875 -3.390625 L 2.453125 -3.390625 L 2.453125 0 L 0.734375 0 L 0.734375 -8.28125 L 6.140625 -8.28125 L 6.140625 -6.90625 L 2.453125 -6.90625 L 2.453125 -4.765625 L 5.71875 -4.765625 Z M 5.71875 -3.390625 "/></g></g><g transform="translate(51.088167, 80.166977)"><g><path d="M 3.8125 -3.03125 L 2.453125 -3.03125 L 2.453125 0 L 0.734375 0 L 0.734375 -8.28125 L 3.8125 -8.28125 C 4.789062 -8.28125 5.546875 -8.0625 6.078125 -7.625 C 6.609375 -7.195312 6.875 -6.582031 6.875 -5.78125 C 6.875 -5.21875 6.75 -4.742188 6.5 -4.359375 C 6.257812 -3.984375 5.894531 -3.6875 5.40625 -3.46875 L 7.1875 -0.078125 L 7.1875 0 L 5.359375 0 Z M 2.453125 -4.421875 L 3.828125 -4.421875 C 4.253906 -4.421875 4.582031 -4.53125 4.8125 -4.75 C 5.050781 -4.96875 5.171875 -5.265625 5.171875 -5.640625 C 5.171875 -6.035156 5.054688 -6.34375 4.828125 -6.5625 C 4.609375 -6.789062 4.269531 -6.90625 3.8125 -6.90625 L 2.453125 -6.90625 Z M 2.453125 -4.421875 "/></g></g><g transform="translate(58.525969, 80.166977)"><g><path d="M 5.71875 -3.59375 L 2.453125 -3.59375 L 2.453125 -1.375 L 6.296875 -1.375 L 6.296875 0 L 0.734375 0 L 0.734375 -8.28125 L 6.28125 -8.28125 L 6.28125 -6.90625 L 2.453125 -6.90625 L 2.453125 -4.921875 L 5.71875 -4.921875 Z M 5.71875 -3.59375 "/></g></g><g transform="translate(65.081707, 80.166977)"><g><path d="M 5.03125 -2.171875 C 5.03125 -2.492188 4.914062 -2.738281 4.6875 -2.90625 C 4.46875 -3.082031 4.0625 -3.265625 3.46875 -3.453125 C 2.875 -3.648438 2.40625 -3.84375 2.0625 -4.03125 C 1.125 -4.539062 0.65625 -5.222656 0.65625 -6.078125 C 0.65625 -6.523438 0.78125 -6.925781 1.03125 -7.28125 C 1.28125 -7.632812 1.640625 -7.910156 2.109375 -8.109375 C 2.585938 -8.304688 3.117188 -8.40625 3.703125 -8.40625 C 4.296875 -8.40625 4.820312 -8.296875 5.28125 -8.078125 C 5.75 -7.859375 6.109375 -7.550781 6.359375 -7.15625 C 6.617188 -6.769531 6.75 -6.332031 6.75 -5.84375 L 5.046875 -5.84375 C 5.046875 -6.21875 4.925781 -6.507812 4.6875 -6.71875 C 4.445312 -6.9375 4.109375 -7.046875 3.671875 -7.046875 C 3.253906 -7.046875 2.929688 -6.957031 2.703125 -6.78125 C 2.472656 -6.601562 2.359375 -6.367188 2.359375 -6.078125 C 2.359375 -5.804688 2.492188 -5.578125 2.765625 -5.390625 C 3.035156 -5.210938 3.4375 -5.046875 3.96875 -4.890625 C 4.9375 -4.597656 5.640625 -4.234375 6.078125 -3.796875 C 6.523438 -3.367188 6.75 -2.832031 6.75 -2.1875 C 6.75 -1.46875 6.476562 -0.90625 5.9375 -0.5 C 5.394531 -0.09375 4.664062 0.109375 3.75 0.109375 C 3.101562 0.109375 2.519531 -0.00390625 2 -0.234375 C 1.476562 -0.472656 1.078125 -0.789062 0.796875 -1.1875 C 0.523438 -1.59375 0.390625 -2.066406 0.390625 -2.609375 L 2.109375 -2.609375 C 2.109375 -1.691406 2.65625 -1.234375 3.75 -1.234375 C 4.15625 -1.234375 4.46875 -1.316406 4.6875 -1.484375 C 4.914062 -1.648438 5.03125 -1.878906 5.03125 -2.171875 Z M 5.03125 -2.171875 "/></g></g><g transform="translate(72.246354, 80.166977)"><g><path d="M 7.484375 0 L 5.78125 0 L 5.78125 -3.546875 L 2.453125 -3.546875 L 2.453125 0 L 0.734375 0 L 0.734375 -8.28125 L 2.453125 -8.28125 L 2.453125 -4.921875 L 5.78125 -4.921875 L 5.78125 -8.28125 L 7.484375 -8.28125 Z M 7.484375 0 "/></g></g><g transform="translate(80.480861, 80.166977)"><g/></g><g transform="translate(83.38314, 80.166977)"><g><path d="M 3.8125 -3.03125 L 2.453125 -3.03125 L 2.453125 0 L 0.734375 0 L 0.734375 -8.28125 L 3.8125 -8.28125 C 4.789062 -8.28125 5.546875 -8.0625 6.078125 -7.625 C 6.609375 -7.195312 6.875 -6.582031 6.875 -5.78125 C 6.875 -5.21875 6.75 -4.742188 6.5 -4.359375 C 6.257812 -3.984375 5.894531 -3.6875 5.40625 -3.46875 L 7.1875 -0.078125 L 7.1875 0 L 5.359375 0 Z M 2.453125 -4.421875 L 3.828125 -4.421875 C 4.253906 -4.421875 4.582031 -4.53125 4.8125 -4.75 C 5.050781 -4.96875 5.171875 -5.265625 5.171875 -5.640625 C 5.171875 -6.035156 5.054688 -6.34375 4.828125 -6.5625 C 4.609375 -6.789062 4.269531 -6.90625 3.8125 -6.90625 L 2.453125 -6.90625 Z M 2.453125 -4.421875 "/></g></g><g transform="translate(90.820943, 80.166977)"><g><path d="M 5.71875 -3.59375 L 2.453125 -3.59375 L 2.453125 -1.375 L 6.296875 -1.375 L 6.296875 0 L 0.734375 0 L 0.734375 -8.28125 L 6.28125 -8.28125 L 6.28125 -6.90625 L 2.453125 -6.90625 L 2.453125 -4.921875 L 5.71875 -4.921875 Z M 5.71875 -3.59375 "/></g></g><g transform="translate(97.376681, 80.166977)"><g><path d="M 2.453125 -1.375 L 6.078125 -1.375 L 6.078125 0 L 0.734375 0 L 0.734375 -8.28125 L 2.453125 -8.28125 Z M 2.453125 -1.375 "/></g></g><g transform="translate(103.687716, 80.166977)"><g><path d="M 5.71875 -3.59375 L 2.453125 -3.59375 L 2.453125 -1.375 L 6.296875 -1.375 L 6.296875 0 L 0.734375 0 L 0.734375 -8.28125 L 6.28125 -8.28125 L 6.28125 -6.90625 L 2.453125 -6.90625 L 2.453125 -4.921875 L 5.71875 -4.921875 Z M 5.71875 -3.59375 "/></g></g><g transform="translate(110.243453, 80.166977)"><g><path d="M 5.421875 -1.703125 L 2.421875 -1.703125 L 1.859375 0 L 0.046875 0 L 3.125 -8.28125 L 4.703125 -8.28125 L 7.8125 0 L 6 0 Z M 2.890625 -3.09375 L 4.953125 -3.09375 L 3.921875 -6.1875 Z M 2.890625 -3.09375 "/></g></g><g transform="translate(118.085299, 80.166977)"><g><path d="M 5.03125 -2.171875 C 5.03125 -2.492188 4.914062 -2.738281 4.6875 -2.90625 C 4.46875 -3.082031 4.0625 -3.265625 3.46875 -3.453125 C 2.875 -3.648438 2.40625 -3.84375 2.0625 -4.03125 C 1.125 -4.539062 0.65625 -5.222656 0.65625 -6.078125 C 0.65625 -6.523438 0.78125 -6.925781 1.03125 -7.28125 C 1.28125 -7.632812 1.640625 -7.910156 2.109375 -8.109375 C 2.585938 -8.304688 3.117188 -8.40625 3.703125 -8.40625 C 4.296875 -8.40625 4.820312 -8.296875 5.28125 -8.078125 C 5.75 -7.859375 6.109375 -7.550781 6.359375 -7.15625 C 6.617188 -6.769531 6.75 -6.332031 6.75 -5.84375 L 5.046875 -5.84375 C 5.046875 -6.21875 4.925781 -6.507812 4.6875 -6.71875 C 4.445312 -6.9375 4.109375 -7.046875 3.671875 -7.046875 C 3.253906 -7.046875 2.929688 -6.957031 2.703125 -6.78125 C 2.472656 -6.601562 2.359375 -6.367188 2.359375 -6.078125 C 2.359375 -5.804688 2.492188 -5.578125 2.765625 -5.390625 C 3.035156 -5.210938 3.4375 -5.046875 3.96875 -4.890625 C 4.9375 -4.597656 5.640625 -4.234375 6.078125 -3.796875 C 6.523438 -3.367188 6.75 -2.832031 6.75 -2.1875 C 6.75 -1.46875 6.476562 -0.90625 5.9375 -0.5 C 5.394531 -0.09375 4.664062 0.109375 3.75 0.109375 C 3.101562 0.109375 2.519531 -0.00390625 2 -0.234375 C 1.476562 -0.472656 1.078125 -0.789062 0.796875 -1.1875 C 0.523438 -1.59375 0.390625 -2.066406 0.390625 -2.609375 L 2.109375 -2.609375 C 2.109375 -1.691406 2.65625 -1.234375 3.75 -1.234375 C 4.15625 -1.234375 4.46875 -1.316406 4.6875 -1.484375 C 4.914062 -1.648438 5.03125 -1.878906 5.03125 -2.171875 Z M 5.03125 -2.171875 "/></g></g><g transform="translate(125.249946, 80.166977)"><g><path d="M 5.71875 -3.59375 L 2.453125 -3.59375 L 2.453125 -1.375 L 6.296875 -1.375 L 6.296875 0 L 0.734375 0 L 0.734375 -8.28125 L 6.28125 -8.28125 L 6.28125 -6.90625 L 2.453125 -6.90625 L 2.453125 -4.921875 L 5.71875 -4.921875 Z M 5.71875 -3.59375 "/></g></g><g transform="translate(131.805683, 80.166977)"><g><path d="M 5.03125 -2.171875 C 5.03125 -2.492188 4.914062 -2.738281 4.6875 -2.90625 C 4.46875 -3.082031 4.0625 -3.265625 3.46875 -3.453125 C 2.875 -3.648438 2.40625 -3.84375 2.0625 -4.03125 C 1.125 -4.539062 0.65625 -5.222656 0.65625 -6.078125 C 0.65625 -6.523438 0.78125 -6.925781 1.03125 -7.28125 C 1.28125 -7.632812 1.640625 -7.910156 2.109375 -8.109375 C 2.585938 -8.304688 3.117188 -8.40625 3.703125 -8.40625 C 4.296875 -8.40625 4.820312 -8.296875 5.28125 -8.078125 C 5.75 -7.859375 6.109375 -7.550781 6.359375 -7.15625 C 6.617188 -6.769531 6.75 -6.332031 6.75 -5.84375 L 5.046875 -5.84375 C 5.046875 -6.21875 4.925781 -6.507812 4.6875 -6.71875 C 4.445312 -6.9375 4.109375 -7.046875 3.671875 -7.046875 C 3.253906 -7.046875 2.929688 -6.957031 2.703125 -6.78125 C 2.472656 -6.601562 2.359375 -6.367188 2.359375 -6.078125 C 2.359375 -5.804688 2.492188 -5.578125 2.765625 -5.390625 C 3.035156 -5.210938 3.4375 -5.046875 3.96875 -4.890625 C 4.9375 -4.597656 5.640625 -4.234375 6.078125 -3.796875 C 6.523438 -3.367188 6.75 -2.832031 6.75 -2.1875 C 6.75 -1.46875 6.476562 -0.90625 5.9375 -0.5 C 5.394531 -0.09375 4.664062 0.109375 3.75 0.109375 C 3.101562 0.109375 2.519531 -0.00390625 2 -0.234375 C 1.476562 -0.472656 1.078125 -0.789062 0.796875 -1.1875 C 0.523438 -1.59375 0.390625 -2.066406 0.390625 -2.609375 L 2.109375 -2.609375 C 2.109375 -1.691406 2.65625 -1.234375 3.75 -1.234375 C 4.15625 -1.234375 4.46875 -1.316406 4.6875 -1.484375 C 4.914062 -1.648438 5.03125 -1.878906 5.03125 -2.171875 Z M 5.03125 -2.171875 "/></g></g><g transform="translate(138.97033, 80.166977)"><g><path d="M 2.3125 -2.546875 L 0.9375 -2.546875 L 0.75 -8.28125 L 2.5 -8.28125 Z M 1.625 -1.640625 C 1.894531 -1.640625 2.113281 -1.554688 2.28125 -1.390625 C 2.457031 -1.234375 2.546875 -1.03125 2.546875 -0.78125 C 2.546875 -0.519531 2.457031 -0.304688 2.28125 -0.140625 C 2.113281 0.015625 1.894531 0.09375 1.625 0.09375 C 1.351562 0.09375 1.128906 0.015625 0.953125 -0.140625 C 0.785156 -0.304688 0.703125 -0.515625 0.703125 -0.765625 C 0.703125 -1.023438 0.785156 -1.234375 0.953125 -1.390625 C 1.128906 -1.554688 1.351562 -1.640625 1.625 -1.640625 Z M 1.625 -1.640625 "/></g></g><g transform="translate(142.140075, 80.166977)"><g><path d="M 1.515625 -7.953125 L 1.28125 -5.625 L 0.359375 -5.625 L 0.359375 -8.75 L 1.515625 -8.75 Z M 3.359375 -7.953125 L 3.140625 -5.625 L 2.21875 -5.625 L 2.21875 -8.75 L 3.359375 -8.75 Z M 3.359375 -7.953125 "/></g></g></g></svg>